<?xml version="1.0" encoding="utf-8"?>
<!-- Generator: Adobe Illustrator 22.1.0, SVG Export Plug-In . SVG Version: 6.00 Build 0)  -->
<svg version="1.1" id="Capa_1" xmlns="http://www.w3.org/2000/svg" xmlns:xlink="http://www.w3.org/1999/xlink" x="0px" y="0px"
	 viewBox="0 0 1520 791.5" style="enable-background:new 0 0 1520 791.5;" xml:space="preserve">
<style type="text/css">
	.st0{stroke:#000000;stroke-miterlimit:10;}
</style>
<title>lf</title>
<path class="st0" d="M958,794.4c9-3.5,14.3-13.7,17.3-22.2c1.5-4.3,2.8-9,2.4-13.5c-0.7-5.9-2.9-11.5-6.4-16.2
	c-6.9-10-17.8-16.4-29.9-17.5c-5.3-0.5-10.8-0.4-15.8,1.8c-4.3,1.8-8,4.7-11,8.3c-2.1,2.4-4,4.9-5.8,7.5c-1.9,2.7-4,5.7-4.8,9
	c-1.2,4.5,0.4,9.6,2.1,13.8c1.7,3.9,4.1,8.3,8.1,10.1c3.8,1.8,8.7,1.6,12.8,1.6c4.6,0,9.1-0.3,13.7-0.9c5.2-0.7,8.5-3.5,11.3-7.8
	c2.3-3.6,5.7-8.5,4.4-13s-5.4-7.9-8.7-10.8c-4-3.4-9.9-2.9-14.6-1.3c-3.7,1.2-6.8,3.7-8.8,7c-3.1,5.4,0.9,11.8,6,14.2
	c2.4,1.1,5.1,1.2,7.5,0.3c1-0.4,1.9-0.8,2.8-1.3c0.3-0.2,0.7-0.4,1-0.6c1.2-1-0.1,0.9-1.8-0.9c2.6,2.9,6.8-1.4,4.3-4.2
	c-2.2-2.5-5.1-0.1-7.3,1c-1.1,0.6-2.4,0.8-3.6,0.5c-1.7-0.5-3.8-2.6-4-4.4c-0.3-2.1,2.5-4,3.8-4.8c2.7-1.6,5.8-2.2,8.9-1.8
	c1.4,0.2,2.2,1.2,3.2,2.1c1.6,1.4,3.1,2.9,4.3,4.6c0.7,1,1.5,2.1,1.2,3.3c-0.7,1.9-1.6,3.7-2.7,5.3c-1.8,3.2-3.9,6.2-7.7,6.7
	c-3.6,0.5-7.3,0.7-10.9,0.8c-3.6,0.2-7.3,0.1-10.8-0.5c-3.2-0.6-4.8-3.1-6.2-5.8c-1.5-3-3-6.8-2.8-10.3c0.1-2.5,1.7-4.6,2.9-6.6
	c1.5-2.4,3.1-4.6,4.9-6.8c2.8-3.4,4.8-5.7,8.5-7.7c3.3-1.8,7.1-2.7,10.8-2.5c10.1-0.2,19.7,3.9,26.5,11.4c3.7,3.9,6.4,8.6,7.8,13.8
	c1,4.2,0.4,8.2-0.8,12.2c-1.4,4.5-3.3,8.7-5.9,12.6c-2,3-4.6,6.5-8.1,7.9S954.4,795.8,958,794.4L958,794.4z"/>
<path class="st0" d="M899,665c-3.2-2.3-5.7,2.3-8,3.5c-1.8,0.8-3.8,0.5-5.2-0.9c-1.6-1.3-1.2-2.9-0.2-4.5c0.9-1.5,2.2-2.8,3.6-3.9
	c1.6-1.1,4.3-3.3,6.3-3.1c1.7,0.1,3.9,1.5,5.5,2.1c2,0.8,3.8,2.2,5,4c6.9,11.1-7.4,15.8-15.4,18.2c-4.5,1.3-9.6,3-14.4,2.8
	c-4.5-0.2-8-5.8-9.8-9.3c-1.2-2.3-2.1-4.6-1.6-7.3c0.9-3.8,2.3-7.6,4-11.1c1.5-3.3,3.2-6.9,5.5-9.7c2.1-2.7,5.6-3.8,8.8-4.8
	c7.2-2.3,15-2.4,22.3-0.3c5.9,1.9,11.1,6,15.2,10.7c6.6,7.7,9.3,18,7.3,28c-2,10.3-9,20.4-19,24.2c-8.6,3.2-18.1,3.9-27.2,3.9
	c-6.5,0-13.1-0.3-19.6-1.1c-0.8-0.1-1.1-0.1-0.4,0c-1.6-0.4-3.2,0.5-3.7,2.1c-0.4,1.4,0.5,3.5,2.1,3.7c6.2,0.8,12.4,1.3,18.7,1.4
	c10.8,0.2,22.4-0.4,32.6-4.5c12-4.8,20.7-17.2,22.5-29.9c0.7-5.6,0.4-11.3-1-16.8c-1.6-6.9-5.6-12.8-10.6-17.6
	c-5.4-5.2-11.8-9.2-19.2-10.7c-8.6-1.6-17.5-0.7-25.7,2.7c-3.7,1.4-6.8,3.9-9,7.1c-2.4,3.8-4.5,7.8-6.1,11.9
	c-1.6,3.9-3.6,8.3-3.7,12.6c0,3.1,1.3,6.2,2.8,8.9c2.8,5,7.5,11.3,13.7,12c5.6,0.6,11.8-1.4,17.2-3c5.1-1.5,10.5-3.1,14.9-6.3
	c5.7-4.2,8.3-10.6,5.7-17.4c-1.1-3.1-3.1-5.9-5.8-7.8c-2.1-1.5-4.5-2.2-6.9-3.2c-3.3-1.4-5.8-1.8-9.2-0.3c-2.3,1.1-4.5,2.4-6.5,4.1
	c-3.8,3.3-7.6,9-4.8,14.1c3,5.2,9.7,6.9,14.9,3.9c0.1-0.1,0.3-0.2,0.4-0.3c0.9-0.6,1.7-1.3,2.5-2.1c0.3-0.2,0.6-0.5,0.8-0.8
	c0.3-0.4,0,0,0,0h0.1c0.8-0.4,0-0.4-2.3,0C899.2,672.5,902.2,667.2,899,665L899,665z"/>
<path class="st0" d="M793.7,604.9c-4,0-3.5,4.6-4.6,7.2s-5.8,4.2-7,1.4s0-6.2,0.3-9c0.3-2.5,2.7-3.9,4.7-5.3
	c1.8-1.3,4.2-1.1,6.3-0.9s5.8,0.8,7.3,2.3c1,1,1.2,3.3,1.3,4.8c0.1,2.3,0,4.5-0.4,6.8c-0.1,0.9-0.3,1.7-0.6,2.5
	c-0.2,0.6,0.1-0.2-0.1,0.3c-0.1,0.2-0.3,0.5-0.4,0.7c-1.7,3.6-3.7,7.1-5.9,10.4c-1.3,2-2.9,3.8-4.7,5.3c-2.1,1.6-4.1,1.9-6.8,1.9
	c-5.3,0.1-13.2-1-16.1-6.2c-1.8-3.3-2.6-7.5-3.4-11.1c-0.9-3.8-1.4-7.7-1.5-11.6c0-6.5,6.5-13,11.3-16.8c4.9-4.1,10.9-6.6,17.2-7.2
	c6.2-0.5,12.4,0.5,18.2,2.9c3.9,1.8,7.2,4.4,9.8,7.8c7.1,8.4,10.6,19.2,9.8,30.2c-1.7,18.7-17.4,36.5-36.7,35.4c-0.3,0-0.7,0-1-0.1
	c-3.8-0.5-3.8,5.5,0,6c6.1,0.8,12.7-0.9,18.2-3.3c13-5.8,22.1-19.2,24.8-32.9s-1.4-27.5-9.9-38.3c-3.1-4.2-7.3-7.6-12-9.8
	c-6.8-3-14.2-4.3-21.5-3.7c-7.5,0.7-14.7,3.6-20.5,8.4c-5.9,4.7-12.8,12.1-13.5,20c-0.4,4.4,0.5,9.2,1.3,13.5
	c0.7,4.4,2,8.7,3.8,12.9c3.2,6.7,11.2,9.3,18.1,10c3.5,0.3,7.5,0.4,10.8-1c2.6-1.2,4.9-3,6.8-5.3c3.5-4,6-8.7,8.4-13.5
	c1.9-3.9,2.8-8.3,2.7-12.6c0.1-2.8-0.4-5.6-1.5-8.2c-1.3-2.7-3.8-4-6.6-5c-3.1-1.1-6.4-1.6-9.7-1.5c-3.6,0.2-5.7,1.5-8.5,3.6
	c-3,2.3-4.9,4.5-5.3,8.3c-0.1,0.7,0.1-0.5,0,0.1c0,0.3-0.1,0.7-0.2,1c-0.2,1.1-0.3,2.2-0.5,3.3c-0.5,4.6,0.5,10.2,5.6,11.8
	c5.6,1.7,11.5-1.4,13.4-6.9c0.3-0.8,0.5-1.7,0.6-2.6c0.1-0.4,0.2-0.7,0.2-1.1c0-0.1,0.1-0.2,0.1-0.3c0,0.3-1.7,1.4-2.2,1.4
	C797.6,610.9,797.6,604.9,793.7,604.9L793.7,604.9z"/>
<path class="st0" d="M659,618.8c-4.2,1.5-1.8,5.7-2.2,8.8s-4.7,5.3-6.5,2.5c-1.5-2.3-1.5-5.3-2.2-7.9s-0.4-4.7,2.2-6.1
	c2-1.1,4.1-2.2,6.3-3.1c1.4-0.6,4.4-2.1,5.9-1.3c0.7,0.4,1.5,1.7,2,2.3c1,1.3,1.8,2.6,2.6,4.1c1.3,2.5,2.4,5.3,1.9,8.1
	c-0.5,2.1-1,4.2-1.7,6.2c-1.6,5-3.3,10-5.9,14.5c-2.3,3.9-6.8,4.3-11,4.3c-2.4,0-4.7-0.3-6.9-1c-2.8-1-4.5-3.8-6.2-6.1
	c-2.2-3.1-4.1-6.4-5.8-9.7c-1.6-3.2-3.3-6.4-2.9-10.1c1.4-12.8,10.8-24.8,23-28.7c5.6-1.8,12-2.7,17.8-1.5c3.7,0.9,7.1,2.5,10.1,4.8
	c8.2,6,14,14.6,16.6,24.4c1.6,5.8,1.9,11.9,0.7,17.8c-1.3,5.2-3.5,10.1-6.5,14.6c-4.3,6.4-9.6,12.2-15.6,17l-0.5,0.4
	c0.5-0.3,0.1-0.1,0,0c-3.1,2.3-0.1,7.5,3,5.2c6-4.5,11.2-9.9,15.7-15.9c3.9-5,6.8-10.6,8.8-16.6c2-6.8,2.4-13.9,0.9-20.8
	c-2.4-12.5-9.6-23.6-19.9-31.1c-3.8-2.9-8.3-4.9-13-5.8c-7.2-1-14.6-0.2-21.4,2.3c-6.9,2.5-12.9,7-17.3,13
	c-4.6,6.1-8.4,14.4-8.5,22.2c-0.1,4.2,1.9,8.2,3.8,11.8c1.9,3.9,4.2,7.6,6.7,11.2c2.2,3,4.5,5.8,8.1,7.2c2.8,1,5.7,1.5,8.6,1.5
	c5.7,0.2,12.3-0.7,15.8-5.6s5.4-11,7.2-16.7c0.8-2.4,1.5-4.9,2.1-7.4c0.6-3.5,0-7.1-1.6-10.3c-1.5-3.4-3.5-6.4-6-9.2
	c-2-2.2-4.6-2.6-7.5-2.1c-3,0.6-5.9,1.7-8.6,3.2c-2.6,1.3-5.5,2.5-7.3,4.9c-3.2,4.2-1.7,9.3-0.6,14c1,4.3,3.4,9.3,8.5,9.6
	c6,0.2,11-4.4,11.2-10.4c0,0,0,0,0-0.1c0-1.1-0.1-2.1-0.3-3.2c0-0.2-0.3-1.2-0.1-0.8c0-0.1,0-0.3,0-0.4c0.2,0.2-2,2.1-1.8,2
	C664.2,623.3,662.6,617.5,659,618.8L659,618.8z"/>
<path class="st0" d="M567.1,719.8c-1.3,4.2,4.3,4.8,6.2,7c1.3,1.6,1.1,4.1,0.1,5.8s-2.6,1.6-4.2,1.3c-3.8-0.9-4.8-3-5.9-6.4
	c-1.2-3.9-2.8-9.4-1.1-13.4c0.9-2,3.1-2.1,5-2.6c3.3-0.7,6.7-1.1,9.8,0.1c5.3,2.1,10.2,7.4,12.7,12.4c3.1,6.4,3.2,13.8,0.2,20.3
	c-1,1.9-2.4,3.6-4.2,4.8c-0.8,0.6-1.7,1.1-2.6,1.6c-0.5,0.3-1.1,0.4-0.3,0.2c-0.2,0.1-0.5,0.1-0.7,0.2c-0.7,0.1,0.2,0-0.4,0.1
	l-1.1,0.1c-1,0.1-2,0.1-3.1,0.1c-2.5,0-5.1-0.1-7.6-0.3c-5.4-0.5-11.2-1.5-16-4.2c-11.8-6.7-14.1-22.7-10.3-34.6
	c2-6.2,5.5-12.8,10.8-16.9c5.1-3.9,11.8-6.2,18-7.5c11-2.2,22.4,0.1,31.6,6.6c1.5,1,3.2,1.7,4.7,2.7c0,0-0.1-0.1,0.3,0.3l0.6,0.6
	c0.5,0.6,0.9,1.3,1.3,2c2,3.9,3.6,8.1,4.7,12.4c2.3,8.1,4.2,16.3,5.6,24.5c0.1,0.5,0.2,1,0.3,1.6c0.6,3.8,6.4,2.2,5.8-1.6
	c-1.2-7.9-2.9-15.8-5-23.5c-1.3-5.4-3.2-10.6-5.6-15.5c-0.9-1.8-2-3.4-3.4-4.9c-1.6-1.5-3.7-2.2-5.5-3.4c-3.2-2.1-6.7-3.9-10.3-5.3
	c-8.5-3.4-17.9-4.2-26.8-2.1c-7.2,1.6-15,4.5-20.7,9.3c-6,5-10.1,12.8-12.3,20.2c-4.2,14.4-0.4,32.8,13.6,40.5
	c6,3.3,12.9,4.4,19.6,4.9c4.2,0.3,9.4,0.8,13.5-0.5c4.8-1.5,9.2-6,11.2-10.4c3.4-7.8,3.3-16.6-0.2-24.4c-3.2-6.7-8.5-12.1-15.1-15.3
	c-3.4-1.5-7.2-2-10.9-1.5c-3.4,0.4-7.9,1-10.5,3.4c-4.2,3.9-3.5,10.7-2.6,15.8c0.8,4.3,2.1,9.7,5.7,12.6c4.2,3.3,11,4.8,15.2,0.7
	c4.3-4.3,4.2-11.3-0.1-15.6c-0.3-0.3-0.7-0.6-1-0.9c-0.8-0.6-1.6-1.1-2.5-1.5c-0.3-0.2-0.7-0.4-1-0.5c-1.3-0.5,1.2-0.3,0.5,2.3
	C574,717.8,568.2,716.2,567.1,719.8L567.1,719.8z"/>
<path class="st0" d="M1005.6,793c8.4-14.1,10.8-32.3,6.9-48.3c-1.8-7.8-5.7-14.9-11.2-20.8c-6.4-6.5-13.9-11.9-22.1-15.9
	c-9.3-4.8-19.2-8.4-29.4-10.6c-3.8-0.8-5.4,5-1.6,5.8c16.4,3.5,33.1,10.5,45.7,21.9c5.6,4.8,9.8,11.2,12,18.3
	c2.2,7.4,2.8,15.2,2,22.8c-0.7,8.4-3.3,16.5-7.5,23.8C998.5,793.3,1003.7,796.4,1005.6,793L1005.6,793z"/>
<path class="st0" d="M951.5,702.4c22-18.2,28.9-50,18.1-76.1c-5.4-12.9-14.3-24-25.7-32.1c-6.3-4.5-13.5-8.3-21.2-9.4
	s-15.5-0.5-23.1,0.3c-15.9,1.8-32,6.4-43.7,18c-2.7,2.7,1.5,7,4.2,4.3c9.3-9.3,22-13.6,34.8-15.6c6.7-1,13.4-1.5,20.2-1.5
	c7.7,0.1,15.2,2.3,21.7,6.5c21.8,13.3,35.5,39.3,31.3,64.8c-2.3,14.3-9.6,27.3-20.7,36.7C944.3,700.6,948.6,704.8,951.5,702.4
	L951.5,702.4z"/>
<path class="st0" d="M859.3,604.9c4.1-13.8-4.4-26.7-12.6-37c-4.4-5.5-8.9-11.1-14.2-15.7c-5.3-4.5-11.4-8-18-10.2
	c-12.8-4.3-26.9-4.6-40.1-2.7c-13.7,1.9-27,6.8-37.9,15.4s-19.3,21-21.8,35c-0.7,3.8,5.1,5.4,5.8,1.6c4.3-24.2,25.7-40,48.7-45
	c12.3-2.7,25-2.8,37.3-0.3c6,1.3,11.7,3.6,16.9,6.8c5.5,3.5,10,8.3,14.1,13.3c8.3,9.9,20.2,23.2,16.1,37.3
	C852.4,607,858.2,608.6,859.3,604.9L859.3,604.9z"/>
<path class="st0" d="M720.9,588.7c-2.5-7.7-8.8-14-15.1-18.9c-6.4-5-13.6-8.8-21.3-11.4c-16.5-5.7-34.6-5.3-51.4-0.8
	c-16.3,4.3-33.2,11.7-42.1,26.8c-7.9,13.4-9.2,29.2-11.3,44.3c-1,7.2,0.5,14.4,2.7,21.2c2.1,6.5,5,14.2,11.2,17.8
	c3.3,2,6.3-3.2,3-5.2c-4.5-2.7-6.7-8.9-8.2-13.6c-1.8-5.3-3.5-11.3-3.1-17c0.6-6.5,1.5-13.1,2.8-19.5c1.2-6.9,2.8-13.9,5.8-20.3
	c2.8-6.4,7.2-12.1,12.8-16.3c6.4-4.7,14-7.9,21.6-10.4c15.3-5.1,32-7,47.9-3.2c7.9,1.9,15.5,5.1,22.3,9.5
	c6.6,4.4,14.4,10.8,16.9,18.5C716.3,594,722.1,592.4,720.9,588.7L720.9,588.7z"/>
<path class="st0" d="M596.3,663.4c-13.5-6.8-28.8-7.1-43.2-3.6c-7.4,1.8-14.6,4.4-21.4,7.7c-6.9,3.3-13.9,6.9-18.5,13.1
	c-4.5,6-6.7,13.4-8.4,20.5c-1.9,8-2.8,16.1-2.7,24.3c0.3,14.1,4.4,27.8,11.9,39.8c7.1,11.7,17,24.2,30.2,29.2
	c3.6,1.4,5.2-4.4,1.6-5.8c-10.3-3.9-18.3-13.8-24.2-22.7c-6.9-10.3-11.9-21.7-13.1-34.2c-0.7-7.6-0.4-15.3,0.8-22.8
	c1.1-6.7,2.6-13.7,5.6-19.9c3.2-6.5,8.2-10.5,14.5-13.8s12.8-6.1,19.6-8.2c14.5-4.4,30.5-5.5,44.3,1.5
	C596.7,670.3,599.8,665.1,596.3,663.4L596.3,663.4z"/>
<path class="st0" d="M1052.2,787.8c6.2-17.6,5.6-36.8-1.8-53.9c-3.6-8.3-8.9-15.7-14.7-22.6c-5.7-6.9-12.4-12.9-19.9-17.8
	c-8.2-5.3-17.7-8.2-27.4-8.3c-3.9,0-3.9,6,0,6c16.6,0.1,30.4,10.1,41,22c11.4,12.8,19.6,27.6,20.9,44.9c0.7,9.5-0.6,19.1-3.9,28.1
	C1045.1,789.9,1050.9,791.4,1052.2,787.8L1052.2,787.8z"/>
<path class="st0" d="M988.4,688.4c20.2-22.1,24.6-55.8,13.8-83.3c-2.9-7.8-7.2-15.1-12.7-21.4c-5.7-6.4-13.1-11.4-20.7-15.3
	c-31-16.1-67.8-16.1-98.9-0.3c-3.4,1.8-0.4,7,3,5.2c27.1-13.7,58.8-14.7,86.7-2.7c7.3,3.1,14.1,7.2,20.2,12.2
	c6.1,5.3,11.1,11.9,14.5,19.3c5.9,12.5,8.4,26.4,7.3,40.3c-1.2,15.4-7.1,30.4-17.5,41.8C981.5,687,985.8,691.3,988.4,688.4
	L988.4,688.4z"/>
<path class="st0" d="M872.7,569.1c-7.4-28.1-27.3-51.2-54-62.7c-26.4-11.2-56.9-7.6-80.5,8.5c-13.3,8.9-23.6,21.6-29.7,36.3
	c-1.5,3.6,4.3,5.1,5.8,1.6c9.9-24.4,33.7-41.4,59.3-46c26.5-4.7,53.2,5.9,71.6,25.1c10.5,10.9,18,24.2,21.8,38.8
	C867.9,574.4,873.7,572.8,872.7,569.1L872.7,569.1z"/>
<path class="st0" d="M712.5,552.2c-6.3-14.1-20.5-22.1-34.4-27c-17.2-6.1-36.6-10.2-54.4-4.4c-8.7,2.8-16.9,7.3-24.8,11.7
	c-7.8,4.2-15.1,9.2-21.9,14.8c-12,10.4-20.4,24.2-24.2,39.6c-4.3,17-2.8,35,4.3,51c1.6,3.5,6.7,0.5,5.2-3c-11.6-26-5.7-58.8,14.3-79
	c5.9-5.8,12.6-10.9,19.8-15c7.1-4.3,14.5-8.2,22.1-11.7c8.1-3.7,17-5.5,26-5.2c8.9,0.4,17.6,2.5,26.1,5
	c14.6,4.4,30.2,11.4,36.8,26.2C708.9,558.8,714.1,555.7,712.5,552.2L712.5,552.2z"/>
<path class="st0" d="M559.1,634c-29.2-3.5-60.4,9.3-77.8,33.2c-5.1,7-7.6,14.9-9.2,23.4c-1.7,8.7-2.9,17.5-3.7,26.4
	c-0.6,8.3-0.4,16.8,1.6,24.9c1.8,6.7,4.5,13,8.1,19c7.7,13.3,18.8,26.3,32.7,33.3c3.4,1.7,6.5-3.4,3-5.2
	c-11.5-5.8-20.7-15.9-27.7-26.6c-3.7-5.5-6.7-11.3-8.9-17.5c-2.2-6.7-3.3-13.7-3.1-20.7c0.2-8.5,1.1-17,2.7-25.4
	c1.3-8,2.4-16.3,6.4-23.5c6.8-12.2,18.7-21.6,31.1-27.7c13.9-6.8,29.5-9.4,44.8-7.5C562.9,640.5,562.8,634.5,559.1,634L559.1,634z"
	/>
<path class="st0" d="M994.9,691.3c8.3,0.9,17-1.2,25.1-2.7c9.6-1.9,19.3-3.4,29-5.2c5.7-1.1,11.5-2,17-3.5c5-1.5,9.9-3.4,14.7-5.6
	c8.4-3.8,17.1-8.3,23.3-15.3c2.9-3.3,5.7-7.3,6.5-11.7c0.9-4.8-1.4-9-4.3-12.7c-5.4-7-13.6-12.2-22.6-12.5
	c-4.8-0.2-9.4,1.4-13.7,3.5c-4.9,2.4-9.7,5.2-14.3,8c-9.2,5.6-18.1,11.7-26.8,18.1s-17,13-25.6,19.3c-3.5,2.5-7,5.1-10.3,7.9
	c-2.7,2.2-5.6,4.7-7.2,7.8c-1.8,3.4,3.4,6.5,5.2,3c1.2-2.3,3.4-4.1,5.3-5.8c2.7-2.3,5.5-4.4,8.4-6.5c6.3-4.6,12.5-9.4,18.8-14.2
	c15.7-11.8,31.9-23.9,49.6-32.5c3.9-1.9,8.1-3.2,12.5-2.6c4,0.6,7.8,2.3,11,4.9c3.3,2.5,5.9,5.7,7.7,9.3c1.8,4-1.4,8.7-4,11.7
	c-5.3,6.3-12.7,10.2-20,13.7c-4.5,2.2-9.2,4.1-14,5.7c-4.9,1.4-9.9,2.5-14.9,3.4c-10.2,1.9-20.5,3.5-30.7,5.5
	c-8.3,1.6-17.2,3.8-25.7,2.9C991,684.8,991,690.8,994.9,691.3L994.9,691.3z"/>
<path class="st0" d="M878.8,567.3c6.4-5.2,11-12.6,15.6-19.4c5.4-8,11-15.7,16.5-23.7c3.1-4.5,6.3-9,9.1-13.7
	c2.7-4.7,5-9.6,6.8-14.7c3.7-9.8,7.3-20.4,5.9-31c-0.6-4.5-1.9-9.6-5.3-12.8c-3.1-2.8-7.9-3.6-12-3.9c-8.1-0.7-16.8,1.6-22.8,7.3
	c-7.3,6.8-9.3,18.3-11.6,27.6c-2.6,10.7-4.6,21.6-6.3,32.5c-1.6,10.6-2.8,21.2-4.4,31.7c-0.7,4.2-1.3,8.4-1.7,12.6
	c-0.3,3.5-0.6,7.3,0.4,10.7c1.1,3.7,6.9,2.1,5.8-1.6c-0.8-2.5-0.5-5.3-0.3-7.8c0.3-3.4,0.7-6.8,1.3-10.2c1.2-7.8,2.2-15.5,3.2-23.3
	c1.4-10,2.9-20,4.9-29.9s4.1-19.9,7.5-29.3c2.5-7.4,8.9-12.9,16.7-14c3.7-0.6,7.4-0.5,11,0.4c1.9,0.5,3.8,1,5,2.6
	c1.2,1.8,2,3.9,2.3,6.1c2.1,9.6-1.3,19.7-4.6,28.6c-1.7,4.7-3.7,9.4-6.1,13.8c-2.4,4.4-5.3,8.4-8.1,12.5
	c-5.7,8.3-11.6,16.4-17.2,24.7c-4.7,7-9.3,14.6-15.9,20C871.5,565.6,875.8,569.8,878.8,567.3L878.8,567.3z"/>
<path class="st0" d="M715.8,542.4c2.1-8.3,1.4-17.2,1-25.6c-0.5-9.7-0.6-19.4-1-29.1c-0.2-5.8-0.3-11.6-1.1-17.4
	c-0.7-5.4-1.9-10.6-3.5-15.8c-2.6-8.8-5.7-17.7-11.6-24.9c-2.8-3.5-6.6-6.8-10.9-8.4c-4.5-1.7-9,0.1-13,2.3
	c-7.3,4-13.6,11.1-15.4,19.4c-2.2,10.3,3,20.7,6.9,29.9c4.3,10.2,9.2,20.1,14.4,29.8c5.1,9.5,10.6,18.8,15.6,28.4
	c2,3.7,3.9,7.4,6.1,10.9c2,3.1,4.1,6.3,7.1,8.5s6.1-2.9,3-5.2c-2-1.4-3.5-4-4.8-6.1c-1.9-3-3.5-6-5.2-9.1c-3.8-7.1-7.7-14-11.6-21.1
	c-4.8-8.7-9.5-17.6-13.8-26.6s-8.8-18.5-11.5-28.3c-2.3-8.3,0.3-15.9,6.5-21.6c2.8-2.7,6.3-4.7,10-5.9c4.2-1.1,8.1,2.5,10.8,5.4
	c5.6,6,8.5,14,10.8,21.7c1.6,4.9,2.8,9.9,3.8,14.9c0.7,5.1,1.1,10.3,1.2,15.4c0.4,10.2,0.5,20.5,1,30.7c0.4,8.5,1.4,17.6-0.7,25.9
	C709,544.6,714.8,546.2,715.8,542.4L715.8,542.4z"/>
<path class="st0" d="M560.3,627.2c-3-7.9-8.5-14.7-13.6-21.3c-6-7.8-11.7-15.8-17.7-23.6c-6.4-8.5-12.8-16.5-21-23.3
	c-7.5-6.2-15.7-12.4-25.2-15.2c-4.5-1.3-10.1-2.1-14.7-0.6s-7.2,5.7-9,9.8c-3.7,8.1-4.5,17.6-0.6,25.8c2.1,4.4,5.7,7.6,9.5,10.5
	c4.3,3.2,8.7,6.1,13.2,8.9c9.3,5.8,18.9,11,28.6,16c9.4,4.8,19,9.2,28.3,14c3.8,2,7.6,3.9,11.6,5.6c3.3,1.4,6.8,2.9,10.4,3
	c3.9,0.1,3.9-5.9,0-6c-2.6,0-5.2-1.2-7.5-2.2c-3.2-1.3-6.2-2.9-9.3-4.5c-6.9-3.5-14-6.9-20.9-10.3c-17.5-8.6-35.4-17.7-51-29.4
	c-3.5-2.6-6.7-5.8-8.3-9.9c-1.3-3.7-1.7-7.7-1-11.6c0.7-4,2.2-7.8,4.5-11.1c2.8-4,7.8-3.7,12.2-2.8c8.9,1.9,16.6,7.6,23.5,13.1
	c7.4,6.1,14,13.1,19.7,20.8c6.2,8.1,12.1,16.4,18.3,24.5c5.1,6.6,11.1,13.5,14.1,21.3C555.9,632.4,561.7,630.8,560.3,627.2
	L560.3,627.2z"/>
<path class="st0" d="M500.5,785.3c-5.9-7.5-14.6-12.8-22.4-18.3c-9.7-6.8-19.1-14.1-28.8-20.8c-10.3-7-21.7-12.2-33.8-15.2
	c-5.8-1.6-11.8-2.1-17.7-1.4c-5.1,0.7-10.9,2.6-13.4,7.5c-4.2,8.4-3.2,20.2,1.5,28.1c5.8,9.8,17.2,12.6,27.5,15.5
	c15.2,4.3,31,5.4,46.5,7.8c7.9,1.2,15.8,2.4,23.8,3.3c3.8,0.4,7.6,0.8,11.4,1c2.4,0.1,5.2,0.3,7.5-0.4c3.7-1.1,2.1-6.9-1.6-5.8
	c-0.2,0-1.2,0.2-0.4,0.1c-0.4,0-0.7,0.1-1.1,0.1c-1.2,0.1-2.4,0-3.6,0c-3-0.1-6-0.4-9-0.7c-6.7-0.7-13.4-1.6-20.1-2.6
	c-5.9-0.9-11.8-1.8-17.6-2.6c-7.6-1-15.3-1.8-22.9-3.3c-3.9-0.8-7.7-1.7-11.5-2.8c-5.2-1.5-10.7-2.8-15.6-5.2
	c-8.4-4.1-12-12.8-11.4-21.8c0.1-2.1,0.5-4.1,1.1-6.2c0.6-2.4,2.4-4.3,4.7-5c5.3-2,11.1-1.8,16.5-0.8c5.7,1.2,11.3,3,16.7,5.2
	c5.3,2,10.4,4.5,15.3,7.5c10.7,6.8,20.6,14.8,30.8,22.1c7.9,5.7,17,11,23.1,18.8C498.6,792.5,502.8,788.2,500.5,785.3L500.5,785.3z"
	/>
<path class="st0" d="M783.5,792.3c1.7-5.7-0.9-13-3.1-18.2c-3.1-7.3-9.6-13.5-16.4-17.5c-7.8-4.6-16-4.9-24.3-1.2
	c-6.8,2.9-12.4,8.1-15.8,14.7c-3.3,6.6-6.1,14.8-5.1,22.2c0.2,1.6,2.3,2.5,3.7,2.1c1.7-0.5,2.3-2.1,2.1-3.7
	c-0.7-5,1.6-10.9,3.4-15.3c2.2-5.5,6.1-10,11.2-13c6.3-3.7,13.2-5,19.9-1.6c6,3,12.1,8.3,15.2,14.3c1.2,2.5,2.1,5,2.7,7.7
	c0.6,2.4,1.5,5.4,0.7,7.9C776.5,794.4,782.3,796,783.5,792.3L783.5,792.3z"/>
<path class="st0" d="M809.7,791.5c-0.1-12.2-4.3-24.5-10-35.1c-6.1-11.3-14.9-20.3-26.8-25.4c-13.6-5.9-27.8-5.4-41.5-0.3
	c-6.6,2.4-13,5.4-18.5,10c-4.5,3.9-8.3,8.4-11.4,13.5c-7,11.1-11.3,25-8.8,38.1c0.7,3.8,6.5,2.2,5.8-1.6c-2-10.2,1.4-21.2,6.2-30.1
	c5.5-10.1,13.3-17.9,23.9-22.4c12.4-5.3,25.3-7.5,38.4-3.1c10.9,3.7,20,11.2,25.8,21.1c6.3,10.4,10.9,23,11,35.3
	C803.8,795.4,809.8,795.4,809.7,791.5L809.7,791.5z"/>
<path class="st0" d="M803.7,781.9l-23.5-3.2l1.5,5.6c6.6-4.2,12.9-8.9,18.7-14.2c2.9-2.6-1.4-6.8-4.3-4.2
	c-5.4,4.9-11.3,9.3-17.5,13.2c-2.7,1.7-1.3,5.2,1.5,5.6l23.5,3.2c1.6,0.2,3-1.5,3-3C806.7,783.1,805.3,782.1,803.7,781.9
	L803.7,781.9z"/>
<path class="st0" d="M796.5,763.1c-6.3,2.6-13.1,3.9-19.9,3.9l2.9,3.8c1.1-4.2,3.9-7.7,6.3-11.3s4.3-7.5,4.7-11.9
	c0.2-2.9-3.3-3.5-5.1-2.1c-6.1,4.7-12.3,9.2-18.6,13.6l4.4,1.8c-1.3-4.4-1.2-9.1,0.4-13.5c1.6-4.3,3.4-8.1,1.2-12.5
	c-0.9-1.8-3.3-1.8-4.7-0.6c-3.3,2.9-6.3,6.1-8.8,9.7c-1.3,1.8-2.4,3.7-3.5,5.6c-0.6,0.9-1.1,1.9-1.5,3c-0.8,1.3-0.1,1.5,2,0.6
	c-0.2-0.6-0.4-1.2-0.6-1.7c-1.6-4.6-3.6-9.1-5.7-13.5c-1.6-3.3-3.4-7.9-7.5-8.7c-1.6-0.4-3.2,0.5-3.7,2.1c-0.1,0.3-0.1,0.5-0.1,0.8
	l0.1,22.9c0,3.9,6,3.9,6,0l-0.1-22.9l-3.8,2.9c1.6,0.3,2.6,3.3,3.3,4.7c1.3,2.5,2.5,5,3.5,7.5s1.8,4.9,2.8,7.3
	c0.7,1.8,1.9,3.7,4,4.1c2.3,0.4,3.9-1,4.8-2.9c1-2.1,2.1-4.2,3.3-6.2c2.7-4.2,5.9-8,9.7-11.2l-4.7-0.6c1,1.9-0.4,4.5-1.1,6.3
	c-0.8,1.8-1.4,3.7-1.8,5.7c-0.8,4.2-0.5,8.5,0.7,12.5c0.4,1.6,2.1,2.5,3.7,2.1c0.3-0.1,0.5-0.2,0.7-0.3c6.8-4.7,13.4-9.5,19.8-14.5
	l-5.1-2.1c-0.3,4-2.8,7.4-5.1,10.6c-2.4,3.4-4.7,6.9-5.7,10.9c-0.4,1.6,0.5,3.2,2.1,3.7c0.3,0.1,0.5,0.1,0.8,0.1
	c7.4,0.1,14.7-1.3,21.5-4C801.7,767.5,800.1,761.7,796.5,763.1L796.5,763.1z"/>
<path class="st0" d="M740.9,751.5c-2.5-1-4.4-3.2-6.5-4.9c-2.2-1.8-4.5-3.4-7.1-4.6c-3.4-1.7-12.2-5.9-13.7,0.1
	c-1.3,5.1,3,9.6,5.8,13.3c1.5,1.9,2.9,3.8,4.3,5.8c0.7,1.1,1.4,2.2,2.1,3.3c0.3,0.5,0.5,1,0.8,1.4c0.6,1-0.1,1.5,0.4-0.6l3.7-2.1
	c1.1,0.3,0-0.1-0.5-0.4c-0.8-0.5-1.6-0.9-2.5-1.2c-1.6-0.4-3.2,0.5-3.7,2.1c-0.1,0.5-0.1,1.1,0,1.6c0.1,0.4,0.3,0.8,0.5,1.2
	c0.5,0.8,0.4,1.1,0.2-0.4l3-3c-0.9-0.2-1.8-0.5-2.6-1c-1.3-0.5-2.5-1.2-3.8-1.8c-2.5-1.2-4.9-2.4-7.4-3.4
	c-3.4-1.4-10.7-3.8-12.3,1.4c-0.7,2.4,1.1,5,2.2,7c1.4,2.4,3,4.7,4.8,6.9c3.5,4.3,7.7,8.1,12.4,11.2c3.2,2.2,6.2-3,3-5.2
	c-3.6-2.4-6.8-5.2-9.6-8.4c-1.4-1.6-2.7-3.3-3.9-5.1c-0.6-0.9-1.1-1.8-1.7-2.7c-0.3-0.5-0.5-0.9-0.8-1.4c-0.3-1.2-0.9-1-1.6,0.6
	c0.8,0.2,1.6,0.3,2.4,0.4c0.9,0.3,1.9,0.6,2.8,0.9c1.9,0.8,3.8,1.7,5.6,2.6s3.7,1.8,5.6,2.6c1.3,0.6,3.3,1.7,4.8,1.5s3.2-1.2,3-3
	c0-0.7-0.2-1.3-0.5-1.9c-0.2-0.3-0.7-1.4-0.4-0.5l-3.6,3.7c1.1,0.3,1.9,1.4,3,1.7c1.6,0.4,3.2-0.5,3.7-2.1l0,0
	c0.4-1.8-0.7-3.6-1.6-5.1c-1.3-2.2-2.7-4.3-4.2-6.3c-1.3-1.8-2.7-3.5-4-5.3c-0.8-1-4.5-5-3.4-6.5l-1.8,1.4c1.4-0.4,4.6,1.3,5.9,1.8
	c2,0.9,3.9,2,5.6,3.3c3.4,2.5,6.1,5.5,10.1,7.2C742.9,758.8,744.4,753,740.9,751.5L740.9,751.5z"/>
<path class="st0" d="M722,775.9c-9.2-0.2-18.2,3.2-27,5.3c-3.8,0.9-2.2,6.7,1.6,5.8c8.3-2,16.8-5.3,25.4-5.1
	C725.9,782,725.9,776,722,775.9z"/>
<path class="st0" d="M842.5,791.5c0.3-21.5-6.7-43.5-18.7-61.3c-6-8.7-13.3-16.5-21.5-23.2c-7.6-6.4-16-11.8-25.5-14.7
	s-18.8-2.5-28.6-1.6c-9.2,0.8-18.8,1.1-27.8,3.5c-5.6,1.6-11.1,3.8-16.4,6.5c-4.7,2.2-9.1,5-13.1,8.2c-7.2,5.9-13.2,13.1-17.9,21.1
	c-11,18.3-16.9,41-13.2,62.2c0.7,3.8,6.5,2.2,5.8-1.6c-3-17.5,1.4-36.2,9.3-51.8c4-8,9.2-15.3,15.5-21.6c7.4-7.2,16.4-11.9,26-15.5
	c8.4-3.1,17.2-3.9,26-4.7s17.7-2.2,26.5-0.5c9,1.7,17.1,5.7,24.4,11.1c8,5.8,15.1,12.6,21.3,20.3c14.1,18.1,21.8,40.5,21.7,63.5
	C836.3,795.4,842.3,795.4,842.5,791.5L842.5,791.5z"/>
<path class="st0" d="M894.8,791.5c-3.2-28.9-12.9-57.9-29.7-81.9s-41.3-41.5-68.8-51c-13.7-4.7-28-7.2-42.4-7.5
	c-16.3-0.2-32.3,3-47.8,7.9c-15.5,4.7-30.2,11.6-43.8,20.5c-10.6,7.2-19.5,16.5-26.3,27.3c-14.2,22.2-20.3,49-21.8,75.1
	c-0.2,3.2-0.3,6.4-0.3,9.6c0,3.9,6,3.9,6,0c0.2-24.9,4.7-50.5,16.2-72.8c5.5-11,13.1-20.7,22.3-28.8c5.1-4.1,10.5-7.7,16.2-10.8
	c6.9-4,14.1-7.4,21.5-10.3c15-5.7,30.9-10.1,47-11.3c13.9-1,27.8,0.3,41.3,3.8c26.8,7,51.8,22.2,69.5,43.5
	c17.9,21.6,28.6,49.2,33.3,76.7c0.6,3.3,1,6.6,1.4,10C889.2,795.3,895.2,795.4,894.8,791.5L894.8,791.5z"/>
<path class="st0" d="M874.3,738.6c-12.8,7.7-26.8,12.8-39.3,21c-3.2,2.1-0.2,7.3,3,5.2c12.5-8.2,26.5-13.3,39.3-21
	C880.6,741.8,877.6,736.7,874.3,738.6z"/>
<path class="st0" d="M863.6,717.8c-10.3,9.1-22.9,15.5-34.7,22.5c-3.3,2-0.3,7.2,3,5.2c12.3-7.2,25.2-14,35.9-23.4
	C870.8,719.5,866.5,715.3,863.6,717.8L863.6,717.8z"/>
<path class="st0" d="M847.3,697.5l-31.5,26.4c-3,2.5,1.3,6.7,4.2,4.2l31.5-26.4C854.5,699.3,850.2,695.1,847.3,697.5z"/>
<path class="st0" d="M829.7,683.1c-3.5,5-7.3,9.7-11.4,14.2c-4.3,4.3-8.9,8.3-13.8,12c-3,2.4,1.3,6.6,4.2,4.2
	c5.1-3.9,9.9-8.1,14.4-12.7c4.2-4.7,8.1-9.6,11.7-14.8C837.2,683,832,680,829.7,683.1L829.7,683.1z"/>
<path class="st0" d="M808,668.7c-6.6,10.1-13.6,19.8-21.2,29.2c-2.4,3,1.8,7.3,4.3,4.2c7.8-9.8,15.2-19.9,22.1-30.5
	C815.3,668.4,810.1,665.4,808,668.7L808,668.7z"/>
<path class="st0" d="M782.7,659.9c-3.9,10.7-8.3,21.3-13.4,31.5c-1.7,3.5,3.5,6.5,5.2,3c5.3-10.7,9.9-21.8,14-33
	C789.8,657.8,784,656.2,782.7,659.9L782.7,659.9z"/>
<path class="st0" d="M751.5,656.2c-1,11.6-0.5,23.3,1.4,34.8c0.6,3.8,6.4,2.2,5.8-1.6c-1.8-11-2.1-22.1-1.2-33.2
	C757.9,652.4,751.8,652.4,751.5,656.2L751.5,656.2z"/>
<path class="st0" d="M698.4,704.4c-7.8-8-14.8-16.9-20.8-26.4c-2-3.3-7.2-0.3-5.2,3c6.2,9.9,13.5,19.2,21.7,27.6
	C696.9,711.4,701.1,707.2,698.4,704.4z"/>
<path class="st0" d="M684.2,714.1c-5.6-3.6-10.8-7.9-15.3-12.8c-4.2-4.5-8.4-9.2-14-12.1c-3.4-1.8-6.5,3.4-3,5.2
	c5.6,2.9,9.6,7.8,13.8,12.3c4.6,4.8,9.7,9.1,15.4,12.6C684.5,721.3,687.5,716.2,684.2,714.1L684.2,714.1z"/>
<path class="st0" d="M672.8,728.7c-10.5-8.6-22.6-15-35.6-18.8c-3.7-1.1-5.3,4.7-1.6,5.8c12,3.6,23.2,9.4,32.9,17.3
	C671.5,735.3,675.8,731.1,672.8,728.7L672.8,728.7z"/>
<path class="st0" d="M664.6,744.7c-3.4-0.5-6.2-2-9.1-3.7c-2.9-1.6-5.9-3-9-4.1c-6.6-2.1-13.5-3.4-20.4-3.7c-3.8-0.2-3.8,5.8,0,6
	c6.7,0.3,13.3,1.5,19.7,3.8c5.9,2.2,10.9,6.7,17.2,7.5c1.6,0.4,3.2-0.5,3.7-2.1C667.1,747.1,666.2,745,664.6,744.7L664.6,744.7z"/>
<path class="st0" d="M660.2,762.5c-12.9-2.6-25.8-5.4-38.6-8.3c-3.8-0.8-5.4,4.9-1.6,5.8c12.8,2.9,25.7,5.7,38.6,8.3
	C662.3,769,664,763.3,660.2,762.5L660.2,762.5z"/>
<path class="st0" d="M660.4,775.1c-14.3,0.3-28.7,0.7-43,1.3c-3.8,0.2-3.9,6.2,0,6c14.3-0.6,28.7-1,43-1.3
	C664.3,781.1,664.3,775.1,660.4,775.1z"/>
<path class="st0" d="M735.6,691.1c-0.5-0.2-1.6-5.3-1.8-6.1l-2.5-8.5l-4.8-16.5c-1.1-3.7-6.9-2.1-5.8,1.6l5.9,20.3
	c1,3.3,1.8,6.6,2.9,9.9c0.8,2.4,1.9,4.4,4.5,5.1C737.8,697.8,739.4,692.1,735.6,691.1L735.6,691.1z"/>
<path class="st0" d="M718,696.8l-17.6-33.4c-1.8-3.4-7-0.4-5.2,3l17.6,33.4C714.6,703.2,719.8,700.2,718,696.8z"/>
<path class="st0" d="M883.7,761.3l-45.2,5c-3.8,0.4-3.8,6.4,0,6l45.2-5C887.5,766.8,887.5,760.8,883.7,761.3z"/>
<path class="st0" d="M889.5,780.1c-8.3-0.7-16.5-2.2-24.9-2.5c-8.6-0.4-17.1-0.2-25.7,0.6c-3.8,0.3-3.8,6.3,0,6
	c8.5-0.8,17.1-1,25.7-0.6c8.4,0.4,16.5,1.9,24.9,2.5C893.3,786.5,893.3,780.5,889.5,780.1z"/>
<path class="st0" d="M1042.8,527.7c23.5-10.8,50.6-9.3,74.7-1.3c12.1,4.2,23.7,9.6,34.6,16.1c10.6,6.2,21.5,12.8,30.1,21.6
	c9,9.3,12.8,20.9,14.7,33.5c1.9,12.4,3,24.9,3.5,37.5c0.9,24.4-2.3,49.3-16.8,69.6c-14.3,20.2-36.9,33.4-60.2,40.5
	c-3.7,1.1-2.1,6.9,1.6,5.8c22.1-6.7,43.4-18.6,58.5-36.4c7.9-9.3,13.9-20.1,17.6-31.7c4-12.6,5.4-25.9,5.5-39s-1.2-26.5-2.8-39.7
	c-1.5-12.9-3.6-26.2-11.3-37.1c-7.4-10.5-18.3-17.9-29-24.7c-11.4-7.4-23.4-13.7-36-18.8c-27.9-11.1-59.8-14-87.6-1.1
	C1036.4,524.1,1039.4,529.3,1042.8,527.7L1042.8,527.7z"/>
<path class="st0" d="M1184.7,787.1c-6.1-11.3-14.6-21.1-24.9-28.7c-9.9-7.5-21.8-13.1-34.4-13.4c-3.9-0.1-3.9,5.9,0,6
	c11.5,0.3,22.3,5.7,31.3,12.6c9.4,7.1,17.2,16.2,22.7,26.6C1181.3,793.5,1186.5,790.5,1184.7,787.1L1184.7,787.1z"/>
<path class="st0" d="M1043.1,525c10.1-24.5,7.2-51.8-1.6-76.1c-4.7-12.7-10.6-24.9-17.8-36.4c-6.8-11-14.3-21.8-23.5-31
	c-9.1-9.3-20-16.4-32.2-21c-12.5-4.7-25.9-6.6-39.2-7.3c-13.5-0.5-26.9-0.4-40.4,0.5c-14,0.7-28.3,2-41.8,6.3
	c-13.2,4-25,11.8-33.9,22.5c-8.5,10.2-15.1,22.8-15.7,36.3c-0.2,3.9,5.8,3.9,6,0c0.5-11.1,5.8-21.6,12.4-30.3
	c6.9-9.2,16.1-16.3,26.8-20.7c12.7-5,26.2-6.9,39.7-7.8c13-0.9,26.1-1.3,39.1-1.1c24.8,0.5,50.1,4.9,69.4,21.7
	c9.4,8.2,17.1,18.2,23.9,28.5c7,10.6,13.1,21.7,18.1,33.4c10.7,25.5,15.5,54.5,4.6,80.8C1035.8,527,1041.6,528.5,1043.1,525
	L1043.1,525z"/>
<path class="st0" d="M800.5,415.5C794.9,389,774,369.1,752,355c-24.6-15.9-52.6-26.8-81.8-30.2c-27.1-3.2-54.9,0.6-79.5,12.8
	c-22.1,11-41.5,28.4-53.7,50c-6.3,11-10.4,23.1-12.3,35.7c-2.3,16-0.4,31.8,2,47.6c0.6,4.2,1.3,8.3,1.9,12.5
	c0.5,3.8,6.3,2.2,5.8-1.6c-2.3-15.5-5.2-31.1-4.7-46.8c0.4-12.9,3.5-25.6,8.9-37.4c10-21.2,27-38.7,47.1-50.5
	c47.5-27.8,106.8-19.4,153,6.9c24.5,13.9,49.8,34.2,55.9,63.2C795.5,420.9,801.3,419.3,800.5,415.5L800.5,415.5z"/>
<path class="st0" d="M536.8,480.5c-20.2-18.8-47.5-26.6-74.4-28.6c-28.5-2.1-60,0.3-84.5,16.3c-22.2,14.5-37.7,37.8-45,63
	c-4.3,15.2-6.2,30.9-5.6,46.7c0.2,8,0.9,15.9,2.1,23.8c0.8,5.6,1.3,11.8,3.8,17c5.5,11.2,15.5,19,24.7,27.1
	c9.4,8.2,18.3,17,28.3,24.6c1.7,1.3,3.5,2.6,5.3,3.7c3.3,2,6.4-3.2,3-5.2c-4-2.5-7.7-5.3-11.2-8.5c-4.8-4.1-9.4-8.3-14.1-12.5
	c-9.3-8.4-19.9-15.9-27.2-26.2c-2.4-3.3-4.1-6.3-4.9-10.2c-1.5-7.3-2.6-14.7-3.2-22.1c-1.5-15-0.8-30.2,1.9-45.1
	c5-25.4,17.6-49.3,37.9-65.8c21.9-17.8,50.5-21.7,78-21.2c28.8,0.5,59.2,7.2,80.9,27.3C535.4,487.4,539.7,483.1,536.8,480.5
	L536.8,480.5z"/>
<path class="st0" d="M394.8,669.1c-28.5-1.4-57.8,5.2-81.9,20.7c-10.6,6.7-19.6,15.5-26.4,26c-6.7,10.6-11.7,22.2-14.8,34.4
	c-3.6,13.5-5.2,27.4-4.5,41.3c0.2,3.8,6.2,3.9,6,0c-1.2-23.4,4.2-48.1,15.9-68.5c5.7-10.1,13.6-18.8,23.1-25.5
	c11.1-7.8,23.5-13.6,36.5-17.3c15-4.2,30.6-6,46.1-5.2C398.6,675.3,398.6,669.3,394.8,669.1L394.8,669.1z"/>
<path class="st0" d="M1122.2,747.6c-0.5,9.6-8.8,16.4-16.7,20.6c-4.5,2.4-9.6,4.4-14.8,4.2c-4.3-0.3-8.5-2-11.7-4.8
	c-7.4-6.3-9.1-16.3-5.7-25.2s12.7-16.4,22.6-15.3c10.5,1.2,18.2,10.9,24.2,18.7c0.9,1.4,2.7,1.8,4.1,1.1c1.3-0.7,2.1-2.8,1.1-4.1
	c-6.8-8.8-14.9-18.8-26.4-21.2c-12.2-2.5-24.4,4.9-29.9,15.8c-5.2,10.4-4.5,23,3.2,32c3.6,4.2,8.5,7.1,13.9,8.5
	c6.2,1.4,12.3,0.1,18.1-2.3c11.7-4.9,23.4-14.2,24.1-27.8C1128.4,743.7,1122.4,743.8,1122.2,747.6L1122.2,747.6z"/>
<path class="st0" d="M1038.3,521.9c-8.1,0.7-16.2-0.8-24.3,0c-6.5,0.6-12.7,3.2-17.6,7.5c-9.3,8.2-13.4,21.9-9,33.6
	c4.4,11.8,15,20,27.4,21.4c12.4,1.2,25.1-5.5,31.6-16c7.8-12.7,5.7-29.6-3.7-40.9c-2.5-3-6.7,1.3-4.2,4.2c6.9,8.3,8.9,20.8,4.3,30.7
	c-4.5,9.4-13.9,15.6-24.4,16.1c-10.4,0.3-19.9-6-24.4-15.3s-2.2-20.5,4.9-27.9c4.2-4.4,10-7.1,16.1-7.5c7.8-0.7,15.6,0.7,23.3,0
	C1042.1,527.5,1042.1,521.5,1038.3,521.9L1038.3,521.9z"/>
<path class="st0" d="M792.9,415.6c-6.1,3.8-12,7.7-16.5,13.3c-4.1,5.1-6.9,11-8.3,17.4c-2.6,12.4,2.2,25.2,12.3,32.9
	c11.6,8.7,26.6,6,38.2-1.2c5.9-3.6,11-8.6,13.5-15.2c2.3-6.1,1.4-11.9-1.1-17.6c-2.2-5.1-4.8-11-8.8-15c-5.8-5.9-13.8-9.3-20.4-14
	c-3.2-2.2-6.2,3-3,5.2c5.2,3.6,11,6.5,16.1,10.4c3.8,2.9,6,6.3,8.1,10.4c2,3.8,4.5,8.2,4.6,12.6c0.1,6.1-3.4,11.4-7.9,15.2
	c-8.7,7.3-22.5,12.1-33.1,6.2c-9-5-13.9-15.1-13.1-25.2c0.6-6.2,2.9-12.1,6.7-17.1c4.1-5.7,9.9-9.4,15.8-13
	C799.2,418.8,796.2,413.6,792.9,415.6L792.9,415.6z"/>
<path class="st0" d="M529,480.8c-7.2,10.9-9.5,24.3-6.3,37c1.6,6.2,4.4,12.2,9.5,16.3c4.8,3.8,10.7,6,16.9,6.3
	c12.4,0.7,24-6.2,29.2-17.5c5-11,3.2-24-4.7-33.2c-10.2-12-26.9-14.8-41.7-11.7c-3.8,0.8-2.2,6.6,1.6,5.8c11.1-2.4,23.5-1,32.4,6.6
	c7.8,6.7,11.2,16.8,8.2,26.7c-2.9,9.6-11.4,16.4-21.3,17.1c-5,0.4-9.9-0.6-14.3-3.1c-4.9-2.9-7.7-7.4-9.4-12.7
	c-3.7-11.7-1.8-24.5,5.1-34.7C536.3,480.6,531.1,477.6,529,480.8L529,480.8z"/>
<path class="st0" d="M391,675.8c4.5,10.5,8.4,22.9,18.1,29.9c10.7,7.7,26.2,3.2,36.4-3c9.9-6,16-18.8,11.7-30.1
	c-4.5-11.7-18.1-17.6-29.8-18.3c-13-0.7-26.5,4.7-34.6,15c-2.4,3,1.9,7.3,4.2,4.3c6.1-7.7,15.2-12.5,25-13.2
	c9.9-0.8,21.7,2.4,27.7,10.8c5.7,8.1,2,20-5.8,25.3c-8.1,5.5-21.4,10.5-30.6,4.9c-4.7-2.9-7.8-8-10.2-12.8c-2.6-5.1-4.7-10.5-7-15.8
	C394.6,669.3,389.4,672.3,391,675.8L391,675.8z"/>
<path class="st0" d="M1372.4,790.2c9.8-17,21.1-33.2,33.6-48.4c6.3-7.6,12.9-15,19.9-22c6.5-6.6,13.2-13.1,20.8-18.6
	c7.2-5.2,15.2-9.6,24-11.5c3.3-0.7,8.7-1.7,11.4-0.8s5.2,3.2,7.2,5.1c2.7,2.6,3.5,6.6,4.5,10.1c1.5,4.8,2.3,9.9,2.3,14.9
	c-0.1,7.8-3.2,16.4-10,20.8c-7.5,4.9-17,3.2-24.4-1.1c-8-4.7-13.9-12.4-19.3-19.7c-11.8-16-24.4-31.3-37.8-46
	c-13.5-14.8-27.8-28.7-42.9-41.8c-14.4-12.5-29.8-24.2-46.7-33.3c-31.5-16.9-70.2-24.1-104.7-11.7c-4,1.5-8,3.2-11.8,5.2
	c-3.4,1.8-0.4,7,3,5.2c33.6-17.7,75.6-11.6,108.1,5.3c17.9,9.3,34,21.5,49.1,34.7c15.6,13.7,30.4,28.3,44.3,43.7
	c7,7.8,13.8,15.7,20.3,23.9c6.4,8,12.3,16.3,18.6,24.3c5.8,7.4,12.7,14.3,21.6,17.9c8.2,3.3,17.9,3.6,25.5-1.3
	c17.2-11.3,14.2-34.8,7.4-51.2c-1.1-2.7-3.5-4.6-5.7-6.3s-5-3.9-7.9-4.5c-4.2-0.9-9.3,0-13.5,0.9c-4.6,1-9,2.5-13.2,4.6
	c-17.5,8.3-31.6,23.3-44.4,37.4c-13.6,15.1-26,31.2-36.9,48.4c-2.7,4.2-5.3,8.5-7.8,12.9C1365.3,790.5,1370.4,793.5,1372.4,790.2
	L1372.4,790.2z"/>
<path class="st0" d="M1201,597c15-6.5,28.3-16.3,39-28.7c10.7-12.1,19.4-26.6,23.4-42.4c4.8-18.9,3.8-39.2,3.3-58.5
	c-0.5-20.2-1.9-40.4-4.2-60.6c-1.3-11.3-2.8-22.6-4.6-33.8c-1.8-11.3-3.9-22.5-3.9-33.9c0-3.9-6-3.9-6,0c0,9.7,1.4,19.3,3,28.8
	c1.6,9.7,3.1,19.4,4.3,29.2c2.5,19.4,4.1,38.9,5,58.5c0.4,9.8,0.6,19.6,0.7,29.4c0.2,9.5-0.3,19.1-1.3,28.5
	c-2.2,16.3-8.8,31.1-18.7,44.2c-10.7,14.2-25.1,26.5-41.6,33.4c-1.6,0.5-2.5,2.1-2.1,3.7C1197.7,596.3,1199.6,597.6,1201,597
	L1201,597z"/>
<path class="st0" d="M1254.6,343.5c-0.7-10.8-0.8-21.6-1.5-32.4c0-0.5,0-0.9-0.1-1.4s-0.1-2.2-0.1-0.8c0-0.7,0.1-1.5,0.2-2.2
	c0.5-3,1.2-6,2.2-8.9c3-9,8.8-17.6,18.2-20.7c5-1.6,10.4-1.6,15.5-0.1c3.6,1,7.6,2.6,10.4,5c7,6,8.3,17.3,7,25.9
	c-0.8,5.2-3.2,10.1-7,13.8c-4.1,4.1-8.8,6.3-14.6,6c-6.3-0.3-12.3-0.7-18.3-2.9c-3.8-1.4-7.4-3-11.2-4.4c-7.2-2.5-14.6-4.4-22-6.3
	c-28-7.1-56.3-12.3-84.6-17.5c-16.8-3.1-33.6-6.2-50.5-8.5c-7.1-1-14.1-1.5-21.2-1.9c-5.7-0.3-11.4-0.7-17-0.8s-11.9-0.2-17.6,0.9
	c-5.5,1.1-10.9,4.2-15.9,6.5c-7,3.1-13.8,6.7-20.5,10.6c-2.8,1.9-5.4,4-7.8,6.3c-4.1,3.7-8.3,7.4-12.3,11.1
	c-7.4,6.9-14.5,14.3-19.3,23.3c-2.5,4.8-4.4,9.9-5.7,15.1c-0.9,3.8,4.9,5.4,5.8,1.6c2.6-10.5,7.9-20.1,15.4-27.9
	c7.4-8,15.9-15.2,24.1-22.5c0.2-0.3,0.5-0.5,0.8-0.6c0.5-0.3,0.9-0.6,1.4-0.9c1.4-0.9,2.9-1.8,4.4-2.6c3.5-1.9,7-3.7,10.5-5.5
	c6.2-3,12.5-6.3,19-8.4c4.2-1.4,9.3-1.1,13.7-1.1c5.6-0.1,11.1,0.3,16.6,0.6c7.7,0.4,15.2,0.7,22.8,1.7c17.4,2.4,34.8,5.6,52.1,8.8
	c29.3,5.4,58.7,10.8,87.6,18.3c7.1,1.7,14.2,3.8,21.1,6.3c5.3,2,10.5,4.5,16.1,5.5c2.8,0.4,5.5,0.6,8.3,0.7c3.2,0.4,6.4,0.4,9.6,0.1
	c10.8-1.8,19.6-12.5,21.6-22.8c1.9-9.4,1-20.6-4.6-28.7c-5.1-7.4-14.8-11.3-23.6-12.1c-11.5-1.1-22.2,5-28.5,14.3
	c-4.4,6.7-7.1,14.2-8.1,22.1c-0.1,0.8-0.2,1.6-0.2,2.4c0,0.4,0.1,0.8,0.2,1.2c-0.1-1.2,0,0.4,0,0.7c0.3,4.3,0.4,8.6,0.5,13
	c0.3,6.6,0.6,13.2,1,19.8C1248.8,347.4,1254.8,347.4,1254.6,343.5L1254.6,343.5z"/>
<path class="st0" d="M962.6,359c16.4-48,4.9-103.2-28.8-141c-9.5-10.6-20.3-19.9-31.2-28.9c-11.2-9.2-22.8-18.1-34.8-26.3
	c-11.7-8-24-15.2-36.7-21.5c-12.6-6.2-25.2-12.2-36.1-21.2c-8.1-6.7-15.5-14.3-15.9-25.4c-0.4-9.8,3.5-21.5,13.3-25.5
	c5.4-2.2,11.2-1,16.6,0.7s11.8,4.1,15.4,8.8c3.5,5,5.1,11,4.5,17.1c-0.8,6.6-5.8,11-11,14.5c-46.4,31.1-102.2,44.9-147.9,77.3
	c-10.4,7.3-20.1,15.6-29,24.7c-8.9,9.2-17.3,19.2-23,30.8c-11.2,22.4-13.3,48.3-8.4,72.6c1.2,6,2.9,11.9,4.9,17.7
	c1.3,3.6,7.1,2,5.8-1.6c-8.6-24.3-10.1-51.2-1.4-75.7c4.3-12.2,11.3-22.7,19.7-32.4c8.6-9.8,18.2-18.8,28.6-26.7
	c45.4-34.5,102.1-49,150.1-79.2c5.3-3.3,10.8-6.9,14.2-12.2c3.6-5.5,4-12.3,2.6-18.6c-1.3-6-4.1-11.8-8.9-15.6s-11.1-6.4-17.1-7.8
	c-5.5-1.4-11.3-2.2-16.8-0.2c-4.8,1.8-9,4.9-11.9,9.1c-6.5,8.8-8.3,21.7-4.6,32c3.7,10.6,13,18.2,21.7,24.6
	c11.7,8.6,25.1,14.1,37.9,20.8c26.2,13.6,50,31.5,72.3,50.6c11.1,9.5,21.8,19.6,30.5,31.3c7.5,10.1,13.5,21.2,17.8,32.9
	c8.9,23.8,11.2,49.7,6.5,74.7c-1.2,6.1-2.8,12.2-4.8,18.1C955.6,361,961.4,362.6,962.6,359L962.6,359z"/>
<path class="st0" d="M620,326.7c-7.4-21.2-16.2-42.8-31.8-59.5c-7.5-7.9-16.3-14.4-26.1-19.2c-11-5.4-22.5-7.9-34.6-9.1
	s-24.5-1.4-36.7-1.9c-16.4-0.6-32.9-1-49.3-1.1c-32.5-0.2-64.9,0.9-97.2,4.7c-7.5,0.9-15.4,2.3-23,1c-6.2-1.1-11.7-4.3-15.7-9.2
	c-7.7-9.3-7.4-22.9,0.8-31.8c8.1-8.8,21.6-10.1,31.2-2.9c5.1,3.7,7.8,9.4,9.1,15.4c1.6,7.4,2.1,14.9,1.6,22.5
	c-0.4,6.8-2.3,13.4-3.7,20c-1.1,5.3-2.6,10.5-4.4,15.5c-3.7,10.2-8.5,20.1-12.5,30.2c-4.9,12.2-8,25.1-12,37.6
	c-2.2,7-4.4,14-6.4,21.1c-1.6,5-2.8,10.2-3.6,15.4c-1.2,10.3-1.6,20.6-1.2,30.9c0.2,9.6,0.9,19.2,3,28.6
	c2.4,10.2,5.9,20.2,11.5,29.1c5.4,8.6,12.6,15.9,20.4,22.5c4.5,3.7,9.1,7.3,13.8,10.7c3.1,2.3,6.1-2.9,3-5.2
	c-9-6.7-17.9-13.7-25.3-22.1c-6.5-7.5-11.4-16.3-14.4-25.8c-6.6-19.7-6.9-41.1-5.4-61.7c0.9-11.7,4.6-22.8,8-34
	c2.1-6.9,4.3-13.8,6.5-20.8c2-6.4,3.6-13,5.9-19.3c3.9-10.7,8.9-21,13.1-31.6c4.1-10.4,6.7-21.4,8.8-32.4c1.3-7.8,1.5-15.8,0.6-23.7
	c-0.7-6.9-1.9-13.9-5.6-19.9c-6.2-10.3-18.9-15.3-30.6-13.2c-12,2.2-21.5,13-23.4,24.9c-1.9,12.3,4.4,24.6,15,31.1
	c13.1,8,29.6,3.6,43.8,2.1c16.5-1.7,33-2.7,49.6-3.3c32.2-1,64.4-0.1,96.6,1c12.7,0.4,25.5,0.7,38,2.9c11.5,2,22.5,6.4,32.2,13
	c18.7,12.4,30.2,32,38.5,52.4c2.2,5.5,4.3,11.1,6.2,16.7C615.5,332,621.3,330.4,620,326.7L620,326.7z"/>
<path class="st0" d="M352.7,494.4c-19.4-18.8-48-23-73.9-20.4c-29.4,3-57.2,14.3-82.2,29.6c-23.8,14.7-49.4,26.6-71,44.6
	c-4.3,3.6-8,7.7-12.4,11.2c-3.8,2.9-7.9,5.6-12.1,7.9c-9,5.2-18.7,10.1-28.8,12.9c-8.3,2.3-19.6,2.3-25.8-4.5
	c-9.2-10.1-5.9-25.3,2.3-34.8c5.8-6.7,16.7-5.1,24.3-3c0.7,0.2,1.3,0.4,2,0.6l0.8,0.3c0.1,0,0.1,0.1,0.1,0.1c0.1-0.2,0.5,0.8,0.1,0
	s-1-0.8-0.1-0.1c0.5,0.4,1.2,0.8,1.8,1c2.8,1.1,5.3,2.1,7.7,4.2c5.1,4.4,7.5,11,10.2,17c2.9,6,5,12.4,6.3,18.9
	c1.1,6,1.4,12.1,2.3,18.1c1,6.4,2.3,12.8,3.7,19.1c5.8,25.9,13.8,51.3,22.5,76.4c4.7,13.4,9.8,26.8,17.8,38.7
	c7.8,11.4,18,20.8,30,27.7c11.3,6.6,23.5,10.7,35.9,14.5c12.7,3.9,25.5,7.5,38.5,10.4c5.8,1.3,11.6,2.4,17.4,3.1c1.6,0.2,3-1.5,3-3
	c0-1.8-1.4-2.8-3-3c-12.9-1.7-25.6-5.1-38.1-8.6s-25.3-6.9-37.2-12c-12.7-5.3-24.6-12.8-34-23c-9.9-10.7-16.2-24.1-21.3-37.6
	c-9.6-25.4-17.6-51.3-24-77.7c-3.1-12.6-5.7-25.3-6.9-38.2c-0.6-6.6-2.2-13-4.6-19.1c-1.3-3.4-2.8-6.8-4.3-10.1
	c-1.4-3.4-3.1-6.7-5-9.9c-2.7-4.2-6.4-7.6-10.9-9.8c-1.3-0.7-2.7-1.3-4.1-1.7c-0.6-0.1-0.1-0.2,0.1,0s1.5,1.3,0.3,0.3
	c-0.3-0.3-0.7-0.6-1.1-0.8c-2.7-1.5-6.2-2.2-9.3-2.7c-4.8-1-9.7-1-14.5-0.3C43.3,533,36,546.6,35,557.9s4.9,23.7,16,27.8
	c9.3,3.4,19.7,1.8,28.8-1.5c10.4-3.9,20.4-8.8,29.8-14.9c9.6-6.1,17.1-14.6,26.2-21.4c11.3-8.5,23.6-15.7,35.9-22.7
	c6.2-3.5,12.5-7,18.7-10.7s12.4-7.6,18.8-11.2c13.1-7.4,26.9-13.3,41.3-17.6c26.1-7.6,57-10.4,82.2,2c5.8,2.8,11.1,6.5,15.8,11
	C351.1,501.3,355.4,497.1,352.7,494.4L352.7,494.4z"/>
<path class="st0" d="M1128.3,751.2c16.6-0.3,33.2,3.1,49.5,5c13.5,1.6,26.9,1.7,40.5,1.6c27.7-0.2,55.5-0.6,83.1-2.7
	c7.9-0.6,16.3-0.7,23.4-4.5c7.4-4,15.1-9.1,20.5-15.7c3.6-4.4,6.4-10.4,2.6-15.5c-3.2-4.3-8.9-6.5-13.8-8.1
	c-6.5-1.9-13.1-3.3-19.8-4c-15.7-2-31.7-1.4-47.4-0.1c-41.2,3.4-81.4,14.2-118.8,31.8c-4.6,2.2-9.2,4.5-13.7,6.8
	c-3.4,1.8-0.4,7,3,5.2c35.2-18.5,73.5-30.7,112.9-36c17.4-2.3,35.4-3.8,53-2.8c5.9,0.3,11.8,1,17.7,2.1c5.8,1,11.8,2.3,17.2,5
	c3.6,1.8,7,4,5,8.2c-3.1,6.7-10.8,11.7-16.9,15.4c-1.8,1.1-3.6,2.1-5.4,3.1c-0.6,0.3-1.2,0.6-1.8,0.9c1-0.5,0.2-0.1-0.1,0
	c-1.2,0.3-2.3,0.6-3.5,0.8c-3.6,0.6-7.5,1-11.5,1.3c-26.4,2.2-53,2.5-79.4,2.8c-12.3,0.1-24.7,0.6-36.9-0.5
	c-16.4-1.4-32.6-4.5-49.1-5.7c-3.4-0.3-6.8-0.4-10.2-0.3C1124.4,745.3,1124.4,751.3,1128.3,751.2L1128.3,751.2z"/>
<path class="st0" d="M1161,738c10.6-3.5,21-7.6,31.2-12.2c10.3-4.5,20.6-9.1,30.6-14.4c11.1-6,21.6-13.4,30.2-22.7
	c2.1-2.2,4-4.5,5.8-6.9c1.8-2.6,2.1-5.3,2.5-8.3c0.4-2.5,1-4.6,0.2-7.1c-2-4.3-4.5-8.3-7.6-11.9c-1.5-1.2-3.3-1.8-5.2-2
	c-4.3-0.5-8.7-0.3-12.9,0.6c-2.8,0.5-5.4,1.9-7.3,3.9c-2.9,2.8-5.7,5.7-8.5,8.6c-3.3,3.4-6.9,6.4-10.3,9.8
	c-4.4,4.6-8.6,9.4-12.4,14.4c-7.8,9.8-15.1,20.1-24.1,28.9c-1.7,1.6-3.4,3.2-5.1,4.8c-1,1.1-2.2,2.2-3.4,3.1
	c-2.7,1.5-5.5,2.9-8.4,4.2c-5.7,2.8-11.4,5.7-17.2,8.4c-3.5,1.6-0.5,6.8,3,5.2c4.6-2.1,9.1-4.4,13.6-6.6l8.6-4.3
	c1.6-0.7,3.2-1.5,4.6-2.5c3.5-3,6.9-6.2,10-9.6c4.3-4.4,8.2-9.1,12-13.9c7.5-9.4,14.5-19.1,22.9-27.7c3.2-3.2,6.7-6.1,9.8-9.3
	c2.6-2.7,5.2-5.5,7.9-8.1c0.6-0.6,1.1-1.1,1.7-1.7c0.2-0.2,1.5-1.1,0.8-0.7c1-0.4,2.1-0.7,3.2-0.9c3.5-0.7,7.6-1.2,11.1-0.4
	c1.5,0.3,1.5,0.4,2.3,1.6c1.5,2,2.9,4,4.2,6.2c1.3,2.5,0.8,3.8,0.4,6.4c-0.4,3-0.9,4.9-2.8,7.3c-7.6,9.2-16.7,16.9-27,22.9
	c-10.4,6.2-21.7,11.2-32.7,16.1c-10.9,5-22,9.5-33.4,13.2C1155.7,733.4,1157.2,739.2,1161,738L1161,738z"/>
<path class="st0" d="M1149.8,756.5c30.8,3,64.4,6.3,89.6,26.3c2,1.6,3.9,3.3,5.8,5.1c0.9,0.9,1.9,1.8,2.8,2.7
	c0.4,0.5,0.9,0.9,1.3,1.3c0.1,0.1,0.2,0.3,0.3,0.4c0.4,0.4-0.3-0.4,0,0c2,3.3,7.2,0.3,5.2-3s-5.7-6.2-8.6-8.7
	c-5.9-5.1-12.4-9.4-19.4-12.9c-14.6-7.4-30.7-11.3-46.8-13.8c-10-1.5-20.1-2.5-30.2-3.5C1145.9,750.1,1145.9,756.1,1149.8,756.5
	L1149.8,756.5z"/>
<path class="st0" d="M1042.9,527.5c11.5-10.5,25.6-18.1,38.4-26.8c10.3-7,19.5-15.3,28.7-23.6c19.1-17.2,38.4-34.5,55.9-53.4
	c2.7-2.8,5.2-5.7,7.5-8.7c2.7-3.7,3.7-8.7,4.7-13.1c2.2-9.7,5-30.3-10.1-30.5c-5.9-0.1-11.7,2.6-16.8,5.1c-5.6,2.9-11,6.2-16.1,10
	c-12.3,9-23.3,20.2-33.4,31.6c-23.2,26.4-41.6,56.7-54.1,89.5c-1.6,4.1-3.1,8.3-4.5,12.5c-1.2,3.7,4.6,5.3,5.8,1.6
	c10.7-32.2,27-62.2,48.2-88.8c10.4-12.9,21.9-24.9,34.4-35.8c8.4-7.3,18.3-14.2,28.7-18c3.2-1.2,9.1-3.3,11.7-0.2
	c1.5,1.8,1.8,4.6,1.9,6.9c0.2,3.5-0.1,7.1-0.7,10.5c-0.6,3.8-1.6,7.5-2.7,11.1c-0.3,0.8-0.5,1.6-0.8,2.3c-0.3,1,0.2-0.2,0,0.1
	s-0.5,0.9-0.8,1.3c-0.7,1-1.4,1.9-2.2,2.8c-1.2,1.4-2.4,2.8-3.6,4.1c-16.5,17.9-34.7,34.4-52.7,50.7c-8.5,7.7-16.9,15.8-26.2,22.6
	c-12.4,9-25.7,16.5-38,25.7c-2.6,2-5.1,4-7.5,6.2C1035.8,525.9,1040.1,530.1,1042.9,527.5L1042.9,527.5z"/>
<path class="st0" d="M1050.1,507.5c11.7-19.8,23.6-40,29.2-62.5c2.9-11,4-22.4,3.1-33.7c-0.4-4.9-2.9-8.2-5.4-12.2
	c-2-3.3-5.9-4.7-9.4-5.7c-3-0.9-6.7-2.3-9.9-1.4s-5.9,3.4-8.2,5.7c-2.3,2.2-4.4,4.7-6,7.5c-1.1,2.1-1.2,4.4-1.3,6.7
	c-0.3,6.2-0.4,12.4-0.9,18.6c-0.9,10.8-0.3,21.5,0.6,32.3c0.9,11.5,2.1,23.1,1.3,34.6c-0.3,3.8-0.6,7.6-0.8,11.5
	c0,1.5-0.1,3-0.2,4.6c0,0.8-0.1,1.5-0.1,2.3c0,0.5-0.3,1.7,0,0.9c-0.9,3.7,4.8,5.3,5.8,1.6c0.6-2.2,0.4-4.8,0.5-7
	c0.1-3,0.2-5.9,0.5-8.8c0.6-8.4,0.7-16.8,0.2-25.1c-0.6-9.9-1.7-19.8-2.1-29.7c-0.3-8.3,0.7-16.3,1-24.5c0.1-3,0.2-6,0.3-9
	c0-1.4,0.1-2.8,0.2-4.1c0-0.2,0.2-1.4,0-0.7c0.1-0.7,0-0.2,0.1-0.6c1.1-2.4,3.2-4.5,5-6.3c1.5-1.5,4.2-4.3,6.2-4.5l1.2,0.3l2.5,0.6
	c1.9,0.4,3.7,1,5.5,1.7c1.2,0.4,2.2,1.1,2.9,2.1c1.2,1.7,2.5,3.6,3.5,5.5c1.1,2.1,1.1,4.4,1.2,6.7c0.1,2.8,0.1,5.5,0,8.3
	c-0.3,5.4-0.9,10.8-2.1,16.1c-5,23.8-17.4,44.9-29.7,65.6C1043,507.8,1048.2,510.9,1050.1,507.5L1050.1,507.5z"/>
<path class="st0" d="M1055.4,521.4c17-12.3,34.3-24.9,53.9-32.6c9.4-3.8,19.2-6.2,29.3-7.1c2.3-0.2,5.1-0.6,7.3-0.1
	c1.9,0.5,3.6,1.9,5.3,2.7c1.4,0.5,2.6,1.5,3.2,2.8c0.8,1.6,1.4,3.2,1.9,4.9c0.5,1.4,1,2.7,1.3,4.2c0,0,0.1-0.1-0.1,0.5
	s-0.5,1.2-0.8,1.8c-1.5,2.6-3.4,4.9-5.6,7c-0.8,0.9-1.7,1.6-2.7,2.4c-0.2,0.1-1.1,0.6-0.7,0.5s-0.6,0.1-0.8,0.2
	c-2.6,0.5-5.2,0.8-7.8,1.2c-6.9,0.9-13.7,2.4-20.5,3.2c-9.7,1.2-19.4,1.2-29.1,1.4c-9.9,0.2-19.9,0.5-29.6,2.3
	c-3.4,0.6-6.8,1.2-10.2,1.7c-2.4,0.3-5.3,0.3-7.6,1.2c-3.6,1.3-2.1,7.1,1.6,5.8c2.2-0.8,4.9-0.8,7.2-1.1c3.2-0.4,6.3-1,9.5-1.5
	c9.3-1.7,18.8-2.1,28.2-2.3c10.3-0.2,20.6-0.2,30.9-1.5c7.3-0.9,14.6-2.4,21.9-3.4c2.7-0.2,5.3-0.6,7.9-1.3c2.3-0.7,4.3-2.7,6-4.4
	c4.1-4,9.7-10,7.8-16.2c-1.1-3.6-2-7.5-4.2-10.7c-0.9-1.3-2.1-2.4-3.5-3.2c-2.1-1.3-4.3-2.4-6.6-3.4c-4.6-1.8-10.4-0.7-15.2-0.1
	c-5.3,0.7-10.6,1.8-15.7,3.3c-24.4,7.1-45.3,22-65.6,36.7C1049.2,518.5,1052.2,523.7,1055.4,521.4L1055.4,521.4z"/>
<path class="st0" d="M800.9,417.7c1-15.8,5.6-31.4,8.8-46.9c2.6-12.9,3.8-25.7,4.7-38.8c1.9-26.8,3.7-53.7,3.7-80.5
	c0-7.6,0.5-15.6-2.7-22.7c-3.4-7.4-7.8-14.9-13.6-20.7c-4.1-4-9.9-7.4-15.5-4.3c-4.5,2.5-7.1,7.6-9.1,12.2c-2.5,6-4.4,12.2-5.7,18.5
	c-3.3,15-4,30.5-3.9,45.9c0.2,40.3,7.9,80.2,22.7,117.7c1.8,4.6,3.8,9.3,5.8,13.8c1.6,3.5,6.7,0.5,5.2-3
	c-15.9-35.6-25.1-73.7-27.2-112.6c-0.9-16.6-1-33.9,1.4-50.4c0.9-5.8,2.1-11.5,3.6-17.2c1.5-5.5,3.3-11.1,6.5-15.9
	c2.4-3.7,5-5.4,9-2.7c6.1,4,10.2,11.4,13.5,17.6c1.3,2.2,2.3,4.5,3.1,6.9c0.3,1,0.4,2,0.4,3c0.3,3.9,0.4,7.9,0.4,11.9
	c0.1,25.6-1.5,51.2-3.3,76.7c-0.8,11.7-1.3,23.6-3.4,35.2c-2.8,15.5-7,30.8-9.4,46.4c-0.5,3.3-0.9,6.6-1.1,10
	C794.7,421.7,800.7,421.7,800.9,417.7L800.9,417.7z"/>
<path class="st0" d="M790.9,387.3c-5-22-10.1-44.3-21-64.2c-4.8-9-10.9-17.2-18.1-24.4c-1.6-1.8-3.5-3.3-5.5-4.6
	c-2-1.1-4.3-1.3-6.5-1.9s-3.7-1.1-5.9-0.7c-2.1,0.4-4.1,1.2-5.9,2.2c-2.8,1.5-6.7,3.2-8.3,6s-1.9,6.3-2,9.4
	c-0.2,3.2,0.1,6.4,0.7,9.6c0.5,2.3,1.8,3.8,3.3,5.6c2,2.5,4.2,4.9,6.3,7.3c0.9,1,1.8,2,2.6,3c0.1,0.1,1.1,1.3,0.5,0.5
	c0.9,1.2,1.8,2.4,2.7,3.5c6.4,8.2,13.8,15.3,21.4,22.3c8.2,7.5,16.6,14.8,23.6,23.4c2.5,3,4.8,6.2,7.4,9.1l2.9,3.4
	c0.5,0.6,1,1.2,1.5,1.8c0.2,0.2,0.4,0.5,0.6,0.7s-0.3-0.4,0,0.1c1.9,3.4,7.1,0.4,5.2-3c-1.1-2-3.1-3.8-4.5-5.5
	c-1.9-2.2-3.8-4.5-5.6-6.8c-5.2-6.5-10.9-12.7-17-18.4c-6.9-6.5-14.1-12.7-20.7-19.4c-5.5-5.6-10.1-11.9-15.2-17.8
	c-2-2.3-4.1-4.6-6-6.9c-0.8-0.9-1.6-1.8-2.3-2.8c-0.3-0.3-0.5-0.7-0.6-1.2c-0.6-2.7-0.8-5.5-0.6-8.2c0-2,0.1-5.5,1.3-6.9
	c0,0,1-0.6,1.4-0.9c0.7-0.5,1.5-0.9,2.2-1.4c1.7-1.1,3.5-2,5.4-2.7c1.7-0.5,2.8,0.1,4.5,0.5c2.1,0.5,4.2,0.6,6,2
	c7.3,5.7,13.2,14.1,17.9,22c12.1,20.4,17.4,43.8,22.6,66.8C786,392.6,791.8,391.1,790.9,387.3L790.9,387.3z"/>
<path class="st0" d="M810.5,391c3.7-20.9,7.4-42.3,16.4-61.6c4-8.8,9.2-17.1,15.5-24.4c1.5-1.9,3.2-3.6,5-5.1
	c1.6-1.2,3.7-1.4,5.6-1.9s2.8-1.1,4.8-0.5c1.9,0.7,3.8,1.5,5.5,2.6c2.8,1.5,3.6,1.5,4.3,4.5c0.6,2.9,0.8,5.9,0.7,8.8
	c0,1.1-0.1,2.2-0.3,3.3c0,0.2-0.3,1.2-0.2,0.8s-0.4,0.6-0.5,0.8c-1.5,2.2-3.2,4.3-4.9,6.4c-4.3,5.4-8.2,11.2-12.6,16.6
	c-6,7.3-12.7,14-19.4,20.6c-7,7.1-14,14.3-19.8,22.4c-2,2.7-3.9,5.4-5.9,8c-1.6,2.1-3.8,4.2-5,6.6c-1.7,3.5,3.5,6.5,5.2,3
	c1-2,2.9-3.9,4.3-5.7c2.1-2.6,4.1-5.3,6-8.1c5.5-7.7,12-14.5,18.6-21.1c7.1-7.2,14.4-14.3,20.8-22.2c4.8-6,8.6-11.6,13.3-17.5
	c1.9-2.1,3.6-4.4,5.1-6.7c1.2-2.1,1.3-4.8,1.3-7.1c0.2-5.5,0.1-14-5.3-17.1c-3.4-1.9-7-4.2-10.9-5c-1.9-0.4-3.8-0.2-5.6,0.4
	c-2.3,0.8-4.7,1.1-6.9,2.2c-4.2,2.1-7.5,6.7-10.4,10.3c-3.3,4.1-6.3,8.5-8.9,13.1c-12.6,22.1-17.2,47.4-21.6,72.1
	C804,393.3,809.8,394.9,810.5,391L810.5,391z"/>
<path class="st0" d="M534.3,478.2c-9.1-14-15.2-30-22.4-45.1c-5.9-12.4-13.1-23.9-20.4-35.4c-15-23.6-30.3-47.2-47-69.7
	c-2.6-3.5-5.3-7-8.2-10.3c-3.1-3.4-6.8-5.5-10.9-7.5c-9-4.5-32.6-14.5-34.7,2.6c-0.8,6,1.1,12.4,3.1,18c2.3,6.6,5.1,13.1,8.4,19.3
	c7.5,14.7,17.5,28.4,27.7,41.3c23.8,30.2,52.4,56.2,84.7,77.1c3.9,2.5,7.9,5,11.9,7.3c3.3,2,6.3-3.2,3-5.2
	c-31.8-18.8-60.4-42.6-84.6-70.5c-12.1-13.9-23-28.7-32.6-44.4c-6.3-10.3-11.9-21.8-14.7-33.5c-0.8-3.3-2.2-10,0.5-12.1
	c2.1-1.6,5.5-1,7.9-0.6c4.1,0.8,8,2.1,11.8,3.7c3.9,1.7,7.7,3.7,11.4,5.9c1.1,0.6,0-0.2,0.7,0.5c0.4,0.4,0.9,0.8,1.3,1.3
	c2.4,2.6,4.7,5.4,6.8,8.3c16,21.2,30.5,43.7,44.9,66.1c6.7,10.5,13.8,20.9,19.5,31.9c7.7,14.9,13.9,30.5,21.7,45.3
	c1.6,3,3.3,6,5.1,8.8C531.2,484.4,536.4,481.4,534.3,478.2L534.3,478.2z"/>
<path class="st0" d="M495.9,453.5c-16.5-14.1-33.2-28.5-53-37.8c-9.6-4.7-19.9-7.8-30.5-9.3c-2.3-0.5-4.7-0.5-7-0.2
	c-2.2,0.4-4.1,1.6-6.2,2.5c-3.4,1.2-6.2,3.9-7.6,7.3c-1.3,2.6-3.4,6.3-3.4,9.3s1.7,6.1,3.3,8.6c3,4.5,6.4,9,11.8,10.4
	c5.6,1.4,11.4,2.3,16.9,3.9c10.1,2.9,20.5,4.4,30.9,5.4c11,1.1,22.1,2,32.9,4.6c3.6,0.9,7.3,2,10.9,2.8c1.5,0.3,3,0.7,4.5,1
	c0.8,0.2,1.5,0.4,2.3,0.5c0.3,0.1,2,0.6,0.8,0.1c3.5,1.6,6.6-3.6,3-5.2c-2.2-0.8-4.5-1.4-6.9-1.8c-2.9-0.6-5.8-1.3-8.6-2.1
	c-7.8-2-15.6-3.5-23.6-4.4c-9.6-1.2-19.4-1.8-29-3.3c-7.4-1.2-14.5-3.5-21.9-5c-3-0.6-5.9-1.2-8.8-1.9c-1.1-0.3-2.2-0.5-3.3-0.8
	c-0.3-0.1-0.7-0.2-1-0.3c0.8,0.3,0-0.1-0.2-0.2c-2-1.9-3.9-4-5.4-6.3c-0.9-1.2-1.6-2.5-2.2-3.8c-0.2-0.5-0.4-1-0.5-1.5
	c-0.1-0.4-0.1-0.9-0.1-0.7c0.4-1.4,1-2.8,1.6-4.1c0.6-1.6,1.4-3.2,2.3-4.6c0.7-1.1,1.8-1.9,3.1-2.2c1.9-0.7,3.7-2,5.7-2.3
	c2.2-0.3,4.7,0.3,6.9,0.7c2.5,0.4,4.9,0.9,7.3,1.5c4.9,1.2,9.6,2.8,14.3,4.8c21.2,8.9,38.9,24.1,56.2,38.9
	C494.6,460.3,498.8,456.1,495.9,453.5L495.9,453.5z"/>
<path class="st0" d="M525.8,450.8c-9.3-18.5-18.6-37.3-23-57.6c-2.2-10.1-2.9-20.4-1.8-30.7c0.2-2.2,0.4-4.5,1.6-6.3
	c1.1-1.7,2.3-3.4,3.7-4.9c2-2,5.9-2.2,8.5-2.5c2.8-0.4,3.4-0.7,5.5,1.2c2.3,2.1,4.3,4.4,6,7.1c0.4,0.7,1.3,2.2,1.4,2.5
	s0.3,1.1,0.1,0.2c0,0.5,0.1,0.9,0.1,1.4c0.1,2.7-0.1,5.5-0.2,8.2c-0.2,6.7,0.1,13.3-0.1,20c-0.4,9.4-1.9,18.7-3.2,28
	c-1.4,9.6-2.6,19.3-2.4,29c0.1,3.3,0.1,6.6,0,9.9c-0.1,2.6-0.4,5.4,0,8c0.7,3.8,6.5,2.2,5.8-1.6c0.2,1.3,0.1-0.1,0.1-0.4
	c0-0.7,0-1.3,0-2c0-1.5,0.1-2.9,0.1-4.4c0.1-3.3,0-6.5,0-9.7c-0.2-9.2,1-18.4,2.3-27.6c1.4-10,3-20,3.4-30.1
	c0.2-7.1,0-14.2,0.2-21.3c0.2-2.5,0.2-5.1,0-7.6c-0.3-2.4-1.7-4.6-3.1-6.6c-3.3-4.7-8.2-11.3-14.7-10.4c-3.5,0.5-7.2,0.8-10.5,2.2
	c-3.6,1.5-5.8,5-8,8.1c-2.8,4.1-2.8,10-3,14.7c-0.2,5.4,0,10.9,0.7,16.3c3.1,25,14.3,47.8,25.4,70
	C522.4,457.3,527.6,454.2,525.8,450.8L525.8,450.8z"/>
<path class="st0" d="M382.5,669.2c-14.2-5.5-27.1-14.4-40.3-21.9c-11.1-6.3-22.6-11.1-34.5-15.8c-24-9.6-48.3-19.1-73-27
	c-6.7-2.2-14.1-5.1-21.3-4.2c-7.7,1-15.6,2.8-22.6,6.3c-4.9,2.4-10.6,6.5-10.3,12.6c0.3,5.2,4.1,9.6,7.8,13
	c4.8,4.3,10.1,8.1,15.7,11.3c12.8,7.5,26.9,12.7,41,17.2c37.3,11.7,76.4,16.1,115.3,13c4.9-0.4,9.8-0.9,14.7-1.5
	c3.8-0.5,3.8-6.5,0-6c-37.4,4.8-75.3,2.5-111.8-6.6c-15.9-4-32.2-9-47-16.3c-5.2-2.6-10.3-5.5-15.1-8.7c-4.6-3.1-9.5-6.5-12.7-11.1
	c-2.6-3.7-2.4-6.5,1.4-9.3c5.8-4.2,13.4-6,20.3-7.3c2.2-0.5,4.5-0.8,6.8-0.8c0.2,0,0.4,0,0.6,0.1c-0.7-0.1-0.1,0,0.3,0l2,0.4
	c3.7,0.8,7.3,1.9,11,3c23.6,7.3,46.7,16.4,69.7,25.5c10.6,4.2,21.4,8.2,31.5,13.6c13.6,7.2,26.4,15.7,40.2,22.6
	c2.8,1.4,5.6,2.7,8.5,3.8C384.5,676.3,386.1,670.5,382.5,669.2L382.5,669.2z"/>
<path class="st0" d="M342.7,671.8c-23.1-2.1-46.6-4-69.6,0.7c-10.4,2.2-21.3,5.7-30.4,11.4c-3.5,2.2-5.6,6.1-7.6,9.6s-1,8.3-0.1,12
	c0.7,3.2,1.1,6.2,3.8,8.3c2.7,2,5.7,3.4,8.9,4.3c2.8,1,5.7,1.6,8.6,1.7c2.2,0,4.4-1.1,6.4-1.9c6.2-2.6,12.1-5,18.3-7.4
	c9.4-3.7,18.3-8.5,27-13.5c9.3-5.3,18.7-10.9,28.7-14.8c3.6-1.4,7.2-2.7,10.7-4.2c2.3-1,4.8-2.5,7.2-2.9c3.8-0.8,2.2-6.5-1.6-5.8
	c-2.1,0.4-4.2,1.7-6.1,2.5l-1.9,0.8l-0.8,0.3l-1,0.4l-1.5,0.6l-2.8,1.1c-7.5,2.8-14.8,6.2-21.8,10c-8.2,4.5-16.2,9.4-24.5,13.7
	c-7.2,3.7-14.8,6.3-22.2,9.5c-2.7,1.2-5.5,2.4-8.2,3.5c-1.2,0.5-2.4,1-3.6,1.5l-1.3,0.5c-0.3,0.1-1.2,0.2-0.4,0.2
	c-2.3,0.2-4.8-0.7-7-1.3c-2.7-0.7-5.2-1.8-7.5-3.5c-0.7-0.6-0.6-1.2-1-2.5c-0.5-1.9-0.9-3.7-1.3-5.7c-0.2-1.5-0.4-3.2,0.3-4.5
	c0.9-1.7,2-3.4,3-5c1.2-1.9,3-2.8,4.9-3.8c2.2-1.2,4.4-2.3,6.7-3.3c4.6-2,9.4-3.6,14.3-4.8c23.9-6.1,48.9-3.8,73.2-1.7
	C346.5,678,346.5,672,342.7,671.8L342.7,671.8z"/>
<path class="st0" d="M369.4,662.4c-22.5-9.8-45.8-19.8-63.9-36.7c-4.2-3.8-8-8-11.4-12.6c-1.7-2.2-3.2-4.5-4.6-6.9
	c-1.3-2.4-0.8-5.1-1.1-7.8c-0.4-4.2,3.5-7.3,6.1-10.3c0.5-0.9,1.5-1.4,2.5-1.3c1.9-0.1,3.9,0,5.8,0.4c1.8,0.3,3.6,0.7,5.4,1.3
	c0.7,0.2,1.4,0.5,2.1,0.7c0.1,0,1.3,0.5,0.4,0.1c0.3,0.1,0.4,0.5,0,0c0.2,0.3,0.4,0.6,0.6,0.9c0.7,1,1.3,2,1.9,3
	c3.5,5.7,6.9,11.5,10.4,17.3c2.6,4.3,4.9,8.7,8.4,12.4c3.2,3.4,6.4,6.9,9.8,10.1c6.3,6.1,12.3,12.4,18.6,18.5
	c5,4.6,9.7,9.4,14.2,14.4c1,1.1,2.3,2,3.6,2.7c0.8,0.4,1.5,0.9,2.2,1.4c0.2,0.2,0.5,0.5,0.7,0.6c0.9,0.4-0.6,0.9,0.4-0.8
	c-1.9,3.4,3.3,6.4,5.2,3c2.2-4.1-1.8-7.3-5-9.2c-0.6-0.3-1.2-0.7-1.8-1c-0.2-0.1-0.4-0.2-0.7-0.4c1,0.7,0.1,0-0.1-0.3
	c-2.2-2.8-4.6-5.4-7.2-7.8c-7.7-7.7-15.5-15.3-23.3-22.9c-2.9-2.8-5.8-5.7-8.6-8.6c-1.4-1.5-2.9-3-4.3-4.5c-0.2-0.2-2.2-2.5-1.2-1.2
	c-0.2-0.3-0.5-0.7-0.7-1c-1.4-2.2-2.8-4.5-4.1-6.8c-3.8-6.3-7.5-12.7-11.3-19c-1-1.8-2.1-3.5-3.5-5c-2.1-2.1-6-2.8-8.8-3.4
	c-3.8-0.8-8.4-1.6-12.2-0.4c-1.6,0.6-3,1.6-4,3c-1.9,2-3.7,4.1-5.3,6.3c-1.4,1.9-2.2,4.1-2.3,6.4c0,2.6,0.1,5.3,0.5,7.9
	c0.5,2.9,2.1,5.3,3.7,7.7c1.8,2.6,3.6,5.1,5.6,7.5c19.1,23.2,47.3,35.6,74.2,47.3C369.9,669.1,373,663.9,369.4,662.4L369.4,662.4z"
	/>
<path class="st0" d="M1199.3,787.8c-4.6-3.7-8.6-8-12.7-12.3c-4.6-4.7-9.7-8.8-15.2-12.5c-3.9-2.6-7.9-4.8-11.8-7.4
	c-2.6-1.7-5.3-4-8.2-5.1c-3.6-1.4-5.1,4.4-1.6,5.8c-1.2-0.5,0.5,0.4,0.8,0.6c0.8,0.5,1.6,1,2.4,1.6c1.2,0.8,2.4,1.6,3.7,2.4
	c3.9,2.5,7.9,4.7,11.7,7.3c5.1,3.4,9.9,7.4,14.2,11.8c3.9,4.2,8.1,8.2,12.5,12C1198,794.4,1202.3,790.2,1199.3,787.8L1199.3,787.8z"
	/>
<path class="st0" d="M1315.2,600.1c3.8-7.3,5.7-15.6,5.3-23.9c-0.3-4-0.7-7.9-1.4-11.8c-0.6-4.1-1.1-8.2-2-12.3
	c-1.6-8-4.6-15.3-9.9-21.6c-5.1-6-10.9-11.4-17.2-16.2c-7.1-5.5-16-9-25.1-8.2c-3.8,0.3-3.8,6.3,0,6c7.2-0.6,13.9,1.7,19.8,5.7
	c2.9,2.1,5.6,4.4,8.2,6.9c2.7,2.4,5.4,4.9,7.9,7.5c4.9,5.2,8.3,11.6,9.9,18.5c1.6,7.1,2.8,14.3,3.5,21.6c0.9,8.5-0.1,17.1-4.2,24.7
	C1308.2,600.5,1313.4,603.5,1315.2,600.1L1315.2,600.1z"/>
<path class="st0" d="M1329.4,609.2c10.7-19.5,11.9-43.6,6.2-64.9c-5.7-21-19.2-39-37.6-50.5c-10-6.3-21.7-10.5-33.6-9.8
	c-3.8,0.2-3.9,6.2,0,6c20-1.2,38.6,12.1,50.7,26.9c13,15.7,18.5,36.3,17.7,56.5c-0.3,11.4-3.3,22.6-8.6,32.7
	C1322.4,609.5,1327.5,612.6,1329.4,609.2L1329.4,609.2z"/>
<path class="st0" d="M1358.4,627.7c16.3-29.1,20.3-63.9,12.4-96.2c-3.9-15.8-10.4-30.8-19.1-44.5c-8.8-13.9-19.5-26.8-34.1-34.9
	c-16.2-8.9-34.5-13.7-53-13.9c-3.9,0-3.9,6,0,6c15.6,0.2,31,3.8,45.1,10.5c7.1,3.3,13.6,7.7,19.3,13.1c5.5,5.5,10.4,11.4,14.7,17.9
	c17.7,25.8,27.1,56.9,24.7,88.2c-1.3,17.8-6.5,35.1-15.2,50.7C1351.4,628,1356.5,631.1,1358.4,627.7L1358.4,627.7z"/>
<path class="st0" d="M1353.6,627.3c7.4,9.9,17.2,18.3,26.8,26s22.4,13.2,35,10.5c5.6-1.2,10.9-4.3,13.9-9.3c3.1-5.3,2.9-11.8,1-17.5
	c-3.7-11.4-12.7-21.4-22-28.7c-10.7-8.4-23.4-13.9-36.8-15.9c-3.3-0.5-5.3,3.5-2.3,5.5c9.3,6.1,22,6.1,32.6,4.6
	c10.8-1.6,21-5.7,29.9-12.1c8.6-6.3,17.2-15.8,11.2-26.9c-5.1-9.5-16.8-14.8-27-16c-6.9-0.8-13.7,0.7-20.4,2.3l-22,5.5
	c-3.2,0.8-2.6,6.1,0.8,5.9c11.4-0.7,22.5-3.6,32.8-8.5c5.1-2.5,10-5.4,14.6-8.9c4.4-3.3,9.1-7,12.1-11.7c5.9-9.2,0-21.5-6.9-28.4
	c-7.6-7.5-18.2-11.1-28.8-9.5c-7,1-13.6,3.8-20.1,6.5c-6.1,2.6-12,5.5-16.7,10.2c-2.7,2.8,1.5,7,4.2,4.3c3.5-3.6,7.9-5.9,12.5-8
	c5-2.3,10.1-4.3,15.3-5.9c9.3-2.7,18.8-1.8,26.6,4.2c6.1,4.7,13.6,15.4,8.9,23.1c-2.4,4-6.8,7.3-10.5,10.2
	c-3.9,2.9-8.1,5.5-12.4,7.7c-9.8,5-20.6,7.9-31.6,8.6l0.8,5.9l16.8-4.2c5.3-1.3,10.7-2.9,16.3-3.5c9.6-0.9,19.7,2.2,26.6,9.1
	c3.2,3.2,5.4,7.5,3.7,12c-1.6,4.2-5.5,7.5-9,10.2c-7.7,5.7-16.5,9.6-25.9,11.5c-9.9,1.9-22.4,2.3-31.2-3.4l-2.3,5.5
	c20.8,3,40.4,15.2,51.3,33.3c2.7,4.5,5.2,10.2,4.4,15.6c-0.7,5.1-4.6,8.7-9.3,10.2c-10.6,3.4-22.1-1.3-30.5-7.5
	c-4.9-3.6-9.5-7.8-14-11.9c-4.8-4.1-9.1-8.7-13-13.6C1356.5,621.2,1351.3,624.2,1353.6,627.3L1353.6,627.3z"/>
<path class="st0" d="M1365.6,513.7c9.9-5.9,20.4-11.3,29.8-17.9c8.1-5.6,15.5-13.5,16.6-23.7c1.2-9.4-4.6-18.2-13.7-20.8
	c-10.4-3-21.8-1.6-31.7,2.5c-10.8,4.5-20.1,11.6-29.2,18.7l4.2,4.2c8.7-7.4,17.6-15,24.6-24.1c6.2-8,10.8-18.7,7.3-28.9
	c-3.3-9.5-12.8-14.5-22.5-14.4c-10.5,0.1-20.8,5.3-28.8,11.8c-8.9,7.1-16,16.3-20.6,26.7c-1.3,2.9,2.1,6.3,4.7,3.6
	c6.7-6.8,10.9-16.5,14-25.4c3.4-9.6,4.7-21.4-1.9-30c-3.5-4.5-8.6-7.5-13.8-9.6s-11.6-4.1-17.2-2.5c-5,1.4-9.6,5-13.4,8.5
	c-4,3.6-7.4,8-9.9,12.8c-6.1,11.4-6.3,24.9-0.5,36.5c1.8,3.4,6.9,0.4,5.2-3c-9-17.5,0.8-38.4,17.1-47.5c4.7-2.6,9.4-1.6,14.3,0
	c4.5,1.5,9.2,3.8,12.5,7.3c6.3,6.7,4.9,17,2.3,24.9c-2.7,8.3-6.6,17.6-12.8,23.8l4.7,3.6c6.8-15.8,21.1-30.6,38.2-34.7
	c8-1.9,18.2-0.3,22.3,7.8c4.1,8.4-0.2,17.9-5.3,24.7c-6.9,9.1-15.8,16.5-24.4,23.8c-3,2.5,1.3,6.5,4.2,4.2
	c14-10.9,29.8-22.6,48.6-20.9c4.4,0.4,9.5,1.3,12.6,4.8c2.3,2.8,3.5,6.4,3.3,10c-0.3,8.9-7.6,15.8-14.4,20.5
	c-9.3,6.3-19.4,11.7-29.1,17.4C1359.3,510.5,1362.3,515.7,1365.6,513.7L1365.6,513.7z"/>
<path class="st0" d="M1418.5,790.5c1.9-8.2-2-16-8-21.5c-5.8-5.4-13.6-11-21.9-9.2c-3.8,0.8-2.2,6.6,1.6,5.8c5.8-1.3,12,3.9,16,7.6
	c4.3,4,7.9,9.6,6.4,15.7C1411.8,792.7,1417.6,794.3,1418.5,790.5L1418.5,790.5z"/>
<path class="st0" d="M1047.1,287.8c-1.3-15.4-11.3-28.4-24.3-36.1c-7.3-4.2-15.1-7.2-23.3-9c-7.9-1.9-16-2.9-24.1-2.9
	c-8.7,0.2-17.3,2.2-24.5,7.2c-3.1,2.2-0.1,7.4,3,5.2c11.7-8.2,26.9-7.2,40.2-4.6c14.4,2.8,28.8,8.4,38.4,19.9
	c4.9,5.7,7.9,12.8,8.7,20.2C1041.4,291.6,1047.4,291.7,1047.1,287.8L1047.1,287.8z"/>
<path class="st0" d="M1063.8,284.4c-2.3-20.4-16.1-38.5-32.1-50.6c-16.4-12.4-36.7-18.3-57.2-16.6c-11.6,1-22.9,4.4-33.2,9.9
	c-3.4,1.9-0.4,7,3,5.2c16.8-9.1,36.4-11.7,55-7.4c18,4.3,33.9,15.2,45.2,29.8c6.6,8.6,12,18.7,13.3,29.6
	C1058.2,288.2,1064.2,288.2,1063.8,284.4L1063.8,284.4z"/>
<path class="st0" d="M1096.4,288.2c7.3-36.3-20.7-66.1-48.9-84c-13.8-8.7-28.9-15.2-44.7-19.2c-15.3-3.9-30.5-5.9-46.3-3.7
	c-16.6,2.4-33.3,8.7-45.9,20c-2.9,2.6,1.4,6.8,4.2,4.2c10.4-9.4,24-14.8,37.7-17.6c14.4-2.9,28.5-1.9,42.7,1.3
	c14.9,3.2,29.3,8.6,42.6,16c13.8,7.8,26.9,17.7,37.2,29.9c11.8,14.1,19.3,32.9,15.6,51.3C1089.9,290.3,1095.6,291.9,1096.4,288.2
	L1096.4,288.2z"/>
<path class="st0" d="M1094.8,290c16.1,9.8,37.7,7.6,52.3-4c7.6-6.1,15.7-16.8,10.9-26.9c-4.5-9.5-15.8-15-25.8-16.6
	c-14.3-2.3-28.4,1.8-41.9,6l1.6,5.8c10-3.5,19.5-8.1,28.3-13.9c7.8-5.1,17-11.3,19.5-20.9c1.2-4.3,0.7-9-1.4-12.9
	c-2.3-3.9-6.4-6.3-10.7-7.6c-9.8-3-20.6-1.3-29.9,2.7c-11,4.6-20.2,12.4-28.9,20.3c-2.5,2.3,0.8,6.5,3.6,4.7
	c9.4-5.8,18.1-12.6,26.1-20.3c6.9-6.6,16.2-15.3,15-25.8c-0.9-8.8-8.9-15.4-17.3-16.9c-9.8-1.7-19.2,3.2-26,9.9
	c-9,8.6-13.9,20.2-21.7,29.7l4.7,3.6c6.4-9.1,11-19.3,13.5-30.2c2.3-9.8,3.7-21.4,0.8-31.2c-1.2-4.1-3.3-8-6.8-10.4
	c-4.4-3-9.8-2.6-14.6-0.7c-5.1,2.1-9.9,5.4-14.3,8.7c-4.6,3.3-8.7,7.1-12.4,11.4c-7.8,9.4-12.3,21.3-10.3,33.6c0.5,3.1,5,2.6,5.8,0
	c3.7-11.3,7.1-23.2,8.1-35.1c0.8-9.5-0.9-19.9-8.8-26.1c-4.3-3.4-9.9-5.5-15.2-6.9c-5.3-1.6-11-0.7-15.5,2.6
	c-8,5.8-13.2,16-15.7,25.3c-3.1,11.3-2.6,23.3,1.4,34.4c1.1,3.1,5.8,2.8,5.9-0.8c0.2-18.9-6.7-38.9-24-48.6c-3.8-2.2-8-3.6-12.3-4.3
	c-4.7-0.7-9.7-0.8-12.9,3.2c-2.8,3.5-4.4,8.5-5.5,12.7c-4,15-1.8,31.1,6.3,44.4l5.2-3c-9.6-13.7-21.4-25.6-35-35.2
	c-3.2-2.3-6.7-4.4-10.8-4.1c-3.4,0.4-6.6,2-8.8,4.6c-6,6.6-4.9,15.6-3.5,23.8c0.7,3.8,6.4,2.2,5.8-1.6c-1-6.2-2.4-14.3,3-19
	s11.8,1.6,16.2,5c10.7,8.4,20.2,18.3,28,29.5c2.2,3.1,7.2,0.3,5.2-3c-8.4-13.8-9.8-30.8-3.7-45.8c0.7-1.6,1.5-4.1,3-5.2
	s4-0.7,5.7-0.5c3.7,0.5,7.3,1.6,10.5,3.4c6.7,3.6,12.1,9.2,15.7,15.9c4.6,8.5,6.2,18.3,6,27.9l5.9-0.8c-6.1-16.3-3.5-36.3,8.1-49.6
	c3-3.4,6.7-6.3,11.5-5.8c4.9,0.7,9.6,2.4,13.8,5c7.9,4.8,9.2,13.9,8.5,22.4c-0.9,11.4-4.3,23-7.9,33.9h5.8
	c-3.2-19.8,13.8-35.3,29.1-44.3c3.7-2.2,8.6-4.7,12.8-2.4c3,1.7,4.3,5.2,5.1,8.3c2.1,8.3,0.9,18-0.9,26.2
	c-2.3,10.7-6.8,20.7-13.1,29.6c-2,2.8,2.5,6.3,4.7,3.6c6.1-7.5,10.6-16.1,16.4-23.7c5.1-6.7,12.2-13.1,20.9-14.3
	c6.8-0.9,15.3,3,17.3,10c2.4,8.7-6.9,16.7-12.4,22c-7.7,7.6-16.3,14.3-25.5,19.9l3.6,4.7c12.9-11.6,28.3-24.1,46.8-22.7
	c3.9,0.3,8.3,1.2,11.4,3.8c2.9,2.4,3.7,6.3,2.9,9.9c-1.7,8.2-10,13.5-16.5,17.8c-8.5,5.6-17.6,10.1-27.2,13.5
	c-3.6,1.3-2.1,6.9,1.6,5.8c18-5.6,42.7-12.7,57.8,3.3c3.8,4,4.8,8.5,2.2,13.5c-2,3.6-4.6,6.9-7.8,9.5c-6,5-13.3,8.2-21,9.2
	c-8.8,1.3-17.7-0.5-25.3-5.1C1094.5,282.8,1091.5,287.9,1094.8,290L1094.8,290z"/>
<path class="st0" d="M640.3,216.1c-5.5-5.5-12.8-8.6-20.3-10.5c-8.2-2.1-16.6-3-25.1-2.9c-15.8,0.3-31.5,5.4-42.7,16.8
	c-5.8,5.8-9.8,13.1-11.7,21c-0.8,3.8,4.9,5.4,5.8,1.6c2.9-12.7,12.4-22.7,24-28.1c13.7-6.5,30-6.3,44.5-3.4
	c7.7,1.6,15.4,4.1,21.1,9.8C638.8,223.1,643.1,218.8,640.3,216.1L640.3,216.1z"/>
<path class="st0" d="M652.6,201.1c-15-15.3-37.1-21.3-58.1-19.4c-11.7,1.1-23.2,4-34,8.6c-10,4.1-19.8,9.1-27.8,16.5
	c-8.6,7.9-14.6,18.6-15.4,30.4c-0.3,3.9,5.7,3.8,6,0c1.4-20.5,20.2-33.3,37.4-40.6c18.9-8,40.3-12.3,60.6-6.8
	c10.3,2.7,19.6,8,27.1,15.5C651.1,208.1,655.3,203.9,652.6,201.1L652.6,201.1z"/>
<path class="st0" d="M677.6,179.8c-25.5-26.7-64.2-34.7-99.8-29.8c-9.9,1.4-19.7,3.7-29.3,6.7c-8.4,2.7-17.3,5.5-25.2,9.7
	c-5.7,3.1-11,6.8-16,10.9c-2.4,1.8-4.7,3.9-6.8,6c-2.3,2.6-4.3,5.4-6.1,8.3c-4.5,6.5-9.3,12.9-12.7,20.1c-3.6,7.8-5.3,16-6.1,24.5
	c-0.4,3.8,5.6,3.8,6,0c0.7-7,2-14,4.9-20.4c2.6-5.9,6.3-11.2,10-16.5s6.8-10.6,11.7-14.8c4.8-4.2,9.9-7.9,15.3-11.2
	c6.3-3.9,13.5-6.3,20.5-8.8c9-3.2,18.3-5.7,27.7-7.5c17.6-3.3,35.9-3.6,53.5,0.5c18.2,4.2,35.3,13,48.3,26.5
	C676,186.9,680.3,182.6,677.6,179.8L677.6,179.8z"/>
<path class="st0" d="M678.1,185.3c9-5.1,17.4-11.2,24.9-18.3c6.4-6.1,10.9-14,8.2-23c-2.5-8-9-14.2-17.2-16.2
	c-9.2-2.2-19,0.6-26.6,6c-9.3,6.5-15.4,16.3-20.7,26.1c-1.9,3.5,2.9,6.1,5.2,3c5.4-7.3,10.9-15.1,11.9-24.4c1-8.8-3.2-17.6-8.9-24.1
	c-5.2-6-13.4-11-21.6-10.5c-9.4,0.6-14.4,9.9-18,17.6c-4.5,9.6-6.6,20.1-6.3,30.7c0.1,3.9,5.8,3.9,6,0c0.4-9.1,0.8-18.3-0.9-27.3
	c-1.3-7.1-4.2-14.5-9.8-19.2c-5.9-4.9-13.5-5.4-20.3-2.1c-7.3,3.6-11.6,11.1-14.1,18.5c-3.1,9.3-1.8,18.3,0.1,27.6
	c0.7,3.3,6.1,2.6,5.9-0.8c-0.6-8.6-4.3-17.1-8.4-24.6c-3.8-7.1-10.1-13.3-18-15.7c-7.5-2.3-15.7-0.6-21.7,4.5
	c-6.4,5.7-7.8,15.6-7,23.7c0.9,9.9,5.1,19.1,12,26.3c2,2,6.1-0.1,5-2.9c-5.8-14.9-16.9-30.6-34.5-30.9c-7.1-0.1-14.6,2.4-19.4,7.8
	c-5.8,6.7-6.3,16.2-3.2,24.3c3.9,10.1,12.2,17,20.5,23.5c3,2.4,6.9-1.3,4.2-4.2c-6-6.9-12.8-13.6-21.3-17.3
	c-8.2-3.7-18-4.7-26.3-0.5c-7.1,3.6-12.5,11.3-12.2,19.4c0.4,8.6,6.6,16.4,13.1,21.6c7.6,6.1,16.9,9.8,26.7,10.4
	c2.9,0.2,4.1-4.3,1.5-5.6c-7.6-3.8-15.8-6.4-24.3-7.4c-7.7-1-15.9-0.9-23.2,2.3c-6.6,2.9-12,8.6-13.4,15.8
	c-1.4,6.6,1.3,13.3,6.8,17.2c6.1,4.4,14.2,5.2,21.5,5.6c3.9,0.2,3.9-5.8,0-6c-6.3-0.3-13.8-0.8-18.8-5.1c-5.7-4.8-4.4-12.9,0.3-17.9
	c5.6-6,14.7-6.8,22.4-6.3c9,0.6,17.7,3,25.7,7l1.5-5.6c-7.1-0.5-14-2.8-19.9-6.8c-5.6-3.8-11.4-9.5-13.3-16.2s1.8-13.2,7.4-16.6
	c6.5-3.9,14.8-3.1,21.5-0.2c8.1,3.5,14.4,9.9,20.1,16.4l4.2-4.2c-6.1-4.8-12.5-9.8-16.7-16.4c-3.9-6.2-5.7-14.6-1.7-21.2
	c3-4.9,8.8-7.4,14.4-7.7c6.4-0.3,12.6,1.9,17.3,6.1c6.2,5.4,10.4,12.8,13.3,20.4l5-2.9c-5-5.2-8.4-11.8-9.8-18.9
	c-1.3-6.5-1.2-15.1,3-20.7c3.7-4.9,10.6-6.6,16.4-5.2c6.5,1.5,11.7,6.4,15,12c1.9,3.5,3.6,7.1,5.2,10.7c1.8,3.8,2.8,7.9,3.2,12.1
	l5.9-0.8c-1.8-8.8-2.9-16.9,0.3-25.6c2.8-7.6,9-16.2,18.1-15.1c7.6,0.8,11.7,8.9,13.3,15.5c2.5,9.5,2,19.5,1.5,29.3h6
	c-0.2-7.9,1-15.8,3.7-23.2c1.3-3.7,3-7.2,5-10.5c1.7-2.8,3.7-6.6,7-7.9c6.4-2.7,14.3,2.3,18.7,6.7c5,5.1,8.9,12.3,8.6,19.6
	c-0.3,8.7-6.2,16.3-11.2,23l5.2,3c7.3-13.7,18.2-30,35.8-29.9c7.3-0.1,13.9,4.2,17,10.8c3.3,7.3-0.4,13.7-5.7,18.7
	c-7.3,6.8-15.3,12.7-24,17.6C671.7,182,674.7,187.2,678.1,185.3L678.1,185.3z"/>
<path class="st0" d="M306.8,406.1c-17.5-2-32.5,11.7-42.9,24c-11.9,14-20.1,31.5-17.3,50.2c0.6,3.8,6.4,2.2,5.8-1.6
	c-2.6-16.7,5.7-32.7,16.3-45c9.5-11,22.5-23.4,38.1-21.6C310.7,412.6,310.6,406.6,306.8,406.1L306.8,406.1z"/>
<path class="st0" d="M305.3,391.3c-18.4-5-38.1,0.4-52.5,12.6s-22.7,30.2-24.8,48.8c-1.2,11.5,0,23.1,3.7,34c1.2,3.6,7,2.1,5.8-1.6
	c-5.9-17.5-5.3-37.1,2.4-54c6.9-15,19-27.8,35-33.1c9.3-3.2,19.3-3.5,28.8-1C307.4,398,309,392.2,305.3,391.3L305.3,391.3z"/>
<path class="st0" d="M310.4,356.9c-14-1.8-28.2-0.7-41.8,3.1c-13.2,3.8-26.6,9.9-36.1,20c-4.6,5.2-8.9,10.7-12.9,16.4
	c-4.3,5.9-8.2,12.1-11.7,18.5c-13.8,26.1-15.4,56.9-4.3,84.3c1.4,3.5,7.3,2,5.8-1.6c-9.9-24-9.6-52,1.6-75.6
	c5.8-12.1,13.8-23.5,22.3-33.8c4-5,8.8-9.3,14.2-12.7c5.8-3.5,12-6.3,18.5-8.4c14.3-4.7,29.4-6.2,44.4-4.3
	C314.2,363.3,314.2,357.3,310.4,356.9L310.4,356.9z"/>
<path class="st0" d="M328,304.2c-11.4-2.5-22.4,4-28.3,13.6c-7,11.4-5.9,25.8-3.6,38.4c0.6,3.3,6.2,2.6,5.9-0.8
	c-0.9-9.8-1.5-19.6-2.9-29.3c-0.6-4.3-1.9-8.5-4.8-11.7c-2.6-2.9-6.3-4.7-9.8-6.1c-7.7-3-17-5.3-23.9,0.8c-5.9,5.2-7.1,13.6-5.7,21
	c2,10.6,9.5,19.7,9.9,30.7l5.9-0.8c-4.3-15.9-17-31.6-33.4-35.8c-8.5-2.2-17.5,0.1-22,8.1c-4.7,8.5-2.6,18.3,0.8,26.9
	c3.5,9.3,9.1,17.6,16.3,24.4c2.5,2.3,6.5-0.6,4.7-3.6c-9.3-15.8-28.5-33.4-48.4-26.5c-9.4,3-15.7,11.9-15.5,21.8
	c0,9.3,4,18.2,10.2,24.9c7,7.6,16.7,12.2,27,12.7c3,0.1,4-4.1,1.5-5.6c-9.3-5.5-19.7-8.7-30.4-9.5c-10.2-0.8-21.5,0.5-29.8,7.1
	c-8,6.3-11.3,16.1-8.2,25.9c3,9.5,10,17.3,19.7,20c11.1,3,22.9-0.1,34,3.2c3.7,1.1,5.3-4.6,1.6-5.8c-9.6-3-19.8-3.6-29.7-1.7
	c-8.6,1.7-18.5,5.3-24.1,12.4c-6,7.7-3.7,17.6,1.2,25.3c2.4,3.6,5.3,7.7,9.3,9.7c4.7,2.4,9.7,1.2,14.6,0c10.9-2.7,22.2-4.3,32-10.2
	c3.3-2,0.3-7.2-3-5.2c-7.3,4.3-15.6,6.2-23.8,8c-4,0.9-8.1,2.3-12.1,2.8c-4.4,0.5-7.1-1.9-9.7-5.1c-4.5-5.7-8.8-14.2-4.2-21
	c4.1-6.1,12.8-9,19.7-10.5c9.4-2.1,19.1-1.6,28.2,1.3l1.6-5.8c-8.5-2.6-17.4-1.6-26.1-2c-8.9-0.5-16.5-3.7-21.1-11.7
	c-2.2-3.9-3.8-8.7-3.3-13.3c0.6-3.9,2.5-7.4,5.4-10.1c6.6-6.4,16.4-7.7,25.2-7.4c10.6,0.4,20.9,3.4,30,8.8l1.5-5.6
	c-14.8-0.6-28.3-12.4-30.8-27c-1.5-8.5,1.4-16.8,9.7-20.2c7.9-3.2,16.5-0.9,23.5,3.3c8.2,4.9,14.3,11.9,19.1,20.1l4.7-3.6
	c-5.4-4.9-9.7-10.8-12.9-17.3c-3.3-6.8-6.7-15.3-4.8-22.9s8.5-11,15.9-9.3c7,1.6,13.3,6,18.2,11.1c5.6,5.8,9.7,12.9,11.8,20.8
	c0.9,3.2,6,2.6,5.9-0.8c-0.3-8.2-4-15.3-7.1-22.7c-2.7-6.5-5.2-14.2-1.9-20.9c1.2-2.7,3.4-4.7,6.2-5.6c3.9-1.2,8.2,0.2,11.9,1.5
	c3.1,1,6.3,2.2,8.8,4.3c2.9,2.4,4,5.9,4.5,9.5c1.4,9.4,1.9,19,2.8,28.5l5.9-0.8c-2-10.6-3.1-22.7,2.3-32.5
	c4.2-7.8,13.1-14.2,22.3-12.1C330.2,310.8,331.8,305,328,304.2L328,304.2z"/>
<path class="st0" d="M199.8,478.1c-12.1,2.9-23.8,8.7-34.8,14.4c-1.9,1-3.8,2-5.7,3.1c-1.2,0.6-2.2,1.3-3.1,2.3
	c-0.9,1.2,1.1-1,0.9-0.6c0.1-0.3,0.7,0,0.3,0c-0.3,0-0.7,0.1-1,0.1c-1.1,0.3-2.1,1-2.7,2c-1.8,2.8-2.5,6.2-2,9.5
	c1.4,7.7,10.1,12.8,17.3,14c3.8,0.7,5.4-5.1,1.6-5.8c-4.7-0.8-12.5-4-13.1-9.7c-0.1-1.4,0.5-2.8,0.9-4.1c0.2-1,0,0.1-0.6,0
	c0.9,0,1.7-0.3,2.4-0.8c0.4-0.3,0.7-0.6,1-1c0,0-0.3,0.5-0.4,0.4s-0.2,0.1,0.3-0.2c0.2-0.1,0.4-0.3,0.6-0.4c0.6-0.4,1.3-0.8,1.9-1.1
	c1.9-1,3.8-2,5.7-3c4.9-2.5,9.9-4.9,15-7.1c5.6-2.5,11.3-4.6,17.2-6.1c3.8-0.9,2.2-6.7-1.6-5.8L199.8,478.1z"/>
<path class="st0" d="M158.5,742.5c-10.9,2.1-15.4,15.4-16,25.2c-0.5,8.8,1.5,19.4,7.8,26c2.7,2.8,6.9-1.5,4.2-4.3
	c-5-5.2-6.3-13.7-6.1-20.6c0.2-3.7,1-7.4,2.3-10.9c1.6-4.5,4.4-8.7,9.3-9.6C163.9,747.5,162.3,741.8,158.5,742.5L158.5,742.5z"/>
<path class="st0" d="M141.7,722.1c-11.6,6.6-22.1,18.7-24,32.3c-0.9,6.5-0.3,13.2,0.8,19.7c0.9,6.2,2.5,12.4,4.7,18.3
	c1.4,3.6,7.2,2,5.8-1.6c-4.1-10.6-6.6-23-5.5-34.4c1.2-12.3,10.9-23.2,21.2-29.1C148.1,725.3,145.1,720.2,141.7,722.1L141.7,722.1z"
	/>
<path class="st0" d="M127.4,674.9c-8.3,2.5-14.8,8.5-19.8,15.3c-6,7.9-11,16.5-15,25.6c-3.5,8.2-6.3,16.9-6.8,25.8
	c-0.3,8.5,0.5,17.1,2.4,25.4c1.8,9.1,4.9,17.8,9.2,26c1.8,3.4,7,0.4,5.2-3c-7.1-13.2-10.8-29.3-10.9-44.2
	c-0.1-17.1,8-33.5,17.3-47.3c5-7.4,10.9-15.1,20-17.8C132.7,679.6,131.2,673.8,127.4,674.9L127.4,674.9z"/>
<path class="st0" d="M128.8,670.2c-3.1-11.2-8.7-21.5-16.5-30.2c-6.3-7.2-14-12.3-23.9-12.7c-9.3-0.3-18.1,4.4-21.2,13.4
	c-3.6,10.5,1.5,22.1,7.2,30.8c6.9,10.5,16.3,19.2,27.2,25.4c1.4,0.8,3.3,0.4,4.1-1.1c0.5-0.9,0.6-2.1,0-3
	c-4.8-9.5-14.3-15.1-24-18.5s-21.7-6.1-31.5-1.7c-9.4,4.2-13.2,14.4-12,24.2c1.3,10.2,7.1,19.3,15,25.7c9.5,7.8,21.6,11.9,33.9,11.4
	c1.7,0,3-1.3,3-3s-1.3-3-3-3c-12.9-0.7-26-3.4-38.9-0.8c-9.2,1.9-18.4,7-23.5,15c-11.9,18.4,5.8,39,24.3,42.1
	c14.4,2.4,28.6-2,42.1-6.6c3.6-1.2,2.1-7-1.6-5.8c-18.2,6.1-41.9,13.4-56.9-3.2c-5.4-6.1-7.6-14.7-3.6-22.1s12.2-11.8,20.1-13.6
	c12.4-2.8,25.5,0.2,38,0.8v-6c-17.6,0.9-37.1-9.9-42.1-27.6c-2.1-7.4-1.4-16.6,5.6-21.2c7.7-5,18.2-2.6,26.3-0.1
	c9.4,2.9,19,7.6,23.6,16.8l4.1-4.1c-8.4-4.7-15.9-11-21.8-18.6c-5.6-7.2-11.1-16.4-10.8-25.9c0.3-8.2,6.5-13.6,14.5-13.9
	c8.2-0.3,14.7,3.6,20.1,9.4c7.7,8.2,13.3,18.2,16.3,29.1C124,675.5,129.8,673.9,128.8,670.2L128.8,670.2z"/>
<path class="st0" d="M90.5,773c-11.7,2.4-23.7,5.6-31.2,15.6c-2.3,3.1,2.9,6.1,5.2,3c6.4-8.6,17.8-10.8,27.6-12.9
	C95.9,778,94.3,772.2,90.5,773L90.5,773z"/>
</svg>
